<svg width="51" height="73" viewBox="0 0 51 73" fill="none" xmlns="http://www.w3.org/2000/svg">
<path d="M20.8383 16.7902C19.828 16.7902 18.8592 17.1915 18.1449 17.9058C17.4305 18.6201 17.0292 19.589 17.0292 20.5992C17.0292 21.6095 17.4305 22.5783 18.1449 23.2926C18.8592 24.007 19.828 24.4083 20.8383 24.4083C21.8485 24.4083 22.8173 24.007 23.5317 23.2926C24.246 22.5783 24.6473 21.6095 24.6473 20.5992C24.6473 19.589 24.246 18.6201 23.5317 17.9058C22.8173 17.1915 21.8485 16.7902 20.8383 16.7902ZM18.623 20.5992C18.623 20.0117 18.8564 19.4482 19.2718 19.0328C19.6873 18.6173 20.2507 18.3839 20.8383 18.3839C21.4258 18.3839 21.9893 18.6173 22.4047 19.0328C22.8202 19.4482 23.0536 20.0117 23.0536 20.5992C23.0536 21.1868 22.8202 21.7502 22.4047 22.1657C21.9893 22.5811 21.4258 22.8145 20.8383 22.8145C20.2507 22.8145 19.6873 22.5811 19.2718 22.1657C18.8564 21.7502 18.623 21.1868 18.623 20.5992Z" fill="#F5CAC4"/>
<path d="M34.8792 6.17256L33.7508 3.46478C33.6036 3.10124 33.3417 2.7957 33.005 2.59459C32.8209 2.4827 32.6133 2.41522 32.3986 2.39751C32.184 2.37981 31.9681 2.41236 31.7682 2.49259C30.3976 3.05359 29.58 4.39553 29.1226 5.90163C28.5111 5.514 27.8656 5.18273 27.1942 4.91191C26.7565 4.73629 26.2674 4.73981 25.8324 4.9217C25.3973 5.10359 25.0513 5.44926 24.8689 5.88409L24.8673 5.88728C24.5963 6.54603 24.386 7.21753 24.2362 7.90178C22.8639 7.17822 21.3594 6.82122 20.0079 7.38381C19.8089 7.46786 19.6321 7.59674 19.4911 7.7604C19.3501 7.92406 19.2488 8.11807 19.1951 8.32731C19.0915 8.70184 19.1234 9.10984 19.2684 9.47959L20.7777 13.1213C20.5717 13.3753 20.3977 13.6536 20.2598 13.9501C20.1928 14.0946 20.1328 14.2284 20.0797 14.3517L19.8788 14.1174C19.516 13.6978 19.0696 13.3585 18.5683 13.121C18.067 12.8836 17.5217 12.7532 16.9671 12.7382C16.4126 12.7232 15.8611 12.8239 15.3476 13.0339C14.8342 13.244 14.3702 13.5587 13.9852 13.958L13.982 13.9612C13.6042 14.357 13.3116 14.8259 13.1221 15.3391C12.9326 15.8523 12.8502 16.3989 12.8801 16.9451C12.91 17.4914 13.0514 18.0258 13.2958 18.5152C13.5401 19.0047 13.8821 19.4389 14.3007 19.7912L14.6227 20.0557C14.4898 20.1195 14.3438 20.1912 14.1844 20.2709C13.9918 20.3679 13.8073 20.4803 13.6329 20.6072L9.49397 18.8907L9.47963 18.8859C9.11329 18.7385 8.70913 18.7133 8.32734 18.8142C8.1181 18.8679 7.92409 18.9691 7.76043 19.1101C7.59677 19.2511 7.46789 19.428 7.38384 19.627C6.81806 20.9849 7.18144 22.5005 7.91456 23.8807C7.18941 24.0592 6.48497 24.2887 6.09291 24.4162L5.94947 24.464C5.56059 24.5868 5.12072 24.8418 4.88006 25.3087C4.61869 25.8123 4.68244 26.3702 4.94062 26.8754L5.09044 27.1718C5.30559 27.6021 5.59566 28.1759 5.92716 28.7337C4.4115 29.1879 3.05841 30.0055 2.49262 31.3857C2.41239 31.5856 2.37984 31.8014 2.39754 32.0161C2.41525 32.2308 2.48273 32.4384 2.59462 32.6224C2.78587 32.9523 3.09825 33.2185 3.46481 33.3683L6.52641 34.6433L6.43078 34.7358L4.32703 36.8236C4.21547 36.9351 4.23141 37.0945 4.34297 37.2061C6.34791 39.007 9.44616 39.007 11.4144 37.1455C11.2869 37.5407 11.2184 37.9583 11.212 38.3854V41.3498C11.212 41.4932 11.3395 41.6208 11.483 41.6048C14.2242 41.4614 16.4395 39.1982 16.4395 36.4092L16.4077 36.3088L34.535 39.5871C35.103 39.6901 35.6323 39.9454 36.0666 40.3257C36.5008 40.7061 36.8236 41.1972 37.0005 41.7467L38.658 46.8801C38.8493 47.8204 40.0286 48.0595 40.7936 47.2945L47.3599 40.7283C48.1249 39.9632 47.8858 38.7839 46.9455 38.5926L41.6813 37.0116C41.1325 36.8467 40.6383 36.5369 40.2506 36.1148C39.863 35.6927 39.5964 35.1739 39.4788 34.613L35.8132 17.1184C35.8822 17.0069 35.9481 16.8921 36.0108 16.7742C38.7775 16.7487 41.0152 14.5429 41.1586 11.8176C41.1745 11.6742 41.047 11.5467 40.9036 11.5467H37.9392C37.5283 11.5528 37.1204 11.6177 36.728 11.7395L36.7248 11.722C38.5608 9.75372 38.5544 6.67459 36.7598 4.67763C36.7112 4.62485 36.6436 4.59352 36.5719 4.59053C36.5002 4.58755 36.4302 4.61314 36.3773 4.66169L34.8792 6.17256ZM20.749 8.8915C20.7394 8.86638 20.733 8.84014 20.7299 8.81341C21.5587 8.52972 22.6998 8.78631 24.0497 9.63259C25.4219 10.4932 26.8212 11.8543 27.9496 13.3365C28.3082 13.805 28.9345 14.1493 29.5864 13.8815C30.2398 13.6138 30.4422 12.9285 30.3625 12.3468C30.1075 10.4964 30.133 8.53769 30.4948 6.94872C30.8486 5.39959 31.4702 4.40988 32.2511 4.021L32.2766 4.06881L34.2688 8.85325L34.2704 8.85484C34.7916 10.1283 35.2745 12.0535 35.2617 13.1628V13.1771C35.2761 15.9136 33.8114 17.689 31.5483 18.6357C31.0149 18.8535 30.4837 19.0017 29.9545 19.0803C29.3195 18.4684 28.4995 18.0845 27.6229 17.9886C27.4553 17.9731 27.2874 17.9609 27.1193 17.952L27.1718 17.8755C27.4787 17.4218 27.6891 16.91 27.79 16.3717C27.8909 15.8334 27.8803 15.2801 27.7586 14.7461C27.637 14.212 27.407 13.7087 27.0829 13.2672C26.7589 12.8257 26.3476 12.4555 25.8745 12.1794C25.2994 11.8462 24.65 11.6621 23.9856 11.644C23.3211 11.626 22.6627 11.7744 22.0702 12.0758L20.749 8.8915ZM18.5656 27.3726C18.6373 27.9735 18.8381 28.5233 19.1362 28.9998C19.0941 29.7446 18.9248 30.4766 18.6357 31.1642C17.689 33.4273 15.9136 34.8935 13.1771 34.8792H13.1612C12.0535 34.8935 10.1283 34.409 8.85488 33.8879H8.85328L4.07522 31.8957H4.07044L4.02262 31.8686C4.40991 31.0877 5.39963 30.4661 6.94875 30.1123C8.53613 29.7505 10.4948 29.7266 12.3452 29.9784C12.9636 30.0661 13.5995 29.7999 13.8481 29.1847C14.0935 28.5759 13.829 27.9448 13.3381 27.5687C11.8559 26.4403 10.4933 25.0394 9.63263 23.6672C8.78634 22.3173 8.52975 21.1745 8.81344 20.3474C8.83681 20.3506 8.86337 20.3569 8.89313 20.3665L12.5141 21.8694C11.8288 23.0966 11.8129 24.6585 12.6257 25.9494C12.9171 26.4128 13.3015 26.8108 13.7545 27.118C14.2076 27.4253 14.7195 27.6352 15.2578 27.7345C15.7962 27.8338 16.3492 27.8204 16.8821 27.695C17.415 27.5696 17.9161 27.335 18.3536 27.0061L18.513 26.8849C18.5279 27.0337 18.5454 27.1962 18.5656 27.3726ZM25.6833 8.82137C25.8108 8.03088 26.0291 7.25153 26.3399 6.49928C26.3601 6.4516 26.3978 6.41346 26.4452 6.39271C26.4926 6.37196 26.5462 6.37017 26.5949 6.38772L26.5981 6.38931C27.3695 6.70009 28.0946 7.10013 28.7592 7.57666C28.568 8.88831 28.5552 10.3179 28.6843 11.6997C27.8017 10.6246 26.7943 9.65836 25.6833 8.82137ZM7.58466 28.3767C7.18622 27.7902 6.82603 27.0714 6.52959 26.4849L6.35906 26.1502C6.33997 26.1136 6.32449 26.0751 6.31284 26.0355C6.35091 26.0112 6.39223 25.9924 6.43556 25.9797L6.579 25.9319C7.10972 25.7613 8.03888 25.4601 8.82619 25.3087C9.66218 26.4166 10.6268 27.4214 11.6997 28.3018C10.3298 28.1675 8.94893 28.1937 7.58466 28.3767ZM25.0777 13.558C26.2682 14.2497 26.63 15.8307 25.8522 16.9798L25.6992 17.2029C25.5048 17.4898 25.339 17.7352 25.237 17.9169C25.1437 18.07 25.0799 18.2392 25.049 18.4158C25.022 18.5841 25.043 18.7566 25.1096 18.9136C25.1761 19.0706 25.2854 19.2057 25.4251 19.3035C25.5918 19.4139 25.7836 19.4808 25.9829 19.4979C26.1104 19.5138 26.257 19.517 26.3893 19.5202L26.4802 19.5218C26.7463 19.5282 27.0683 19.5362 27.4731 19.5744C28.7369 19.6939 29.8764 21.0247 29.6326 22.3682V22.373C29.5729 22.6956 29.4478 23.0025 29.2652 23.275C29.0825 23.5474 28.8461 23.7797 28.5704 23.9574C28.2948 24.1352 27.9857 24.2547 27.6621 24.3087C27.3386 24.3626 27.0074 24.3499 26.6889 24.2712C26.3989 24.1995 26.1869 24.1373 26.0036 24.0847L25.763 24.0162C25.6429 23.9817 25.5204 23.9566 25.3964 23.9413H25.3916C25.2409 23.9229 25.088 23.9426 24.9468 23.9985C24.8057 24.0545 24.6808 24.145 24.5836 24.2616C24.4697 24.4057 24.4039 24.5818 24.3955 24.7652C24.3921 24.8595 24.4007 24.9537 24.421 25.0457C24.4465 25.1637 24.4912 25.2896 24.5246 25.3804L24.5645 25.4904C24.633 25.6785 24.7175 25.9064 24.8083 26.2124C25.2004 27.5336 24.378 28.9218 23.0265 29.223C22.702 29.294 22.3662 29.2965 22.0407 29.2302C21.7152 29.164 21.4071 29.0305 21.1361 28.8383C20.8652 28.6461 20.6374 28.3995 20.4672 28.1141C20.2971 27.8288 20.1884 27.5111 20.1482 27.1814C20.114 26.8952 20.0869 26.6082 20.0669 26.3207L20.0446 26.053C20.0353 25.9084 20.0161 25.7647 19.9872 25.6227C19.9451 25.4 19.8361 25.1954 19.6748 25.0362C19.5564 24.9279 19.4122 24.8517 19.256 24.8148C19.0998 24.778 18.9367 24.7818 18.7823 24.8258C18.6172 24.8747 18.4612 24.9501 18.3202 25.0489C18.0946 25.2028 17.874 25.3638 17.6588 25.5318L17.3942 25.7311C17.1329 25.9279 16.8336 26.0683 16.5151 26.1433C16.1967 26.2182 15.8662 26.2261 15.5445 26.1665C15.2229 26.1068 14.9171 25.9809 14.6468 25.7968C14.3764 25.6126 14.1473 25.3742 13.974 25.0968C13.7953 24.8166 13.6773 24.5022 13.6273 24.1737C13.5774 23.8452 13.5967 23.5098 13.6841 23.1893C13.7714 22.8687 13.9249 22.5699 14.1345 22.3121C14.3442 22.0544 14.6055 21.8433 14.9016 21.6925C15.1916 21.5459 15.4036 21.4487 15.5901 21.3626C15.6984 21.3137 15.8036 21.2643 15.9056 21.2144C16.022 21.157 16.1654 21.0853 16.2881 20.996C16.5023 20.8488 16.6523 20.6253 16.7073 20.3713C16.7314 20.2338 16.7257 20.0928 16.6905 19.9578C16.6553 19.8228 16.5915 19.6969 16.5033 19.5888C16.4081 19.4715 16.3013 19.3641 16.1845 19.2684C16.0921 19.1908 15.9874 19.1058 15.8706 19.0134L15.8116 18.9656C15.6713 18.8551 15.5098 18.7233 15.3271 18.5703C15.0752 18.3582 14.8694 18.0968 14.7224 17.8021C14.5754 17.5075 14.4904 17.1858 14.4724 16.857C14.4545 16.5282 14.5041 16.1992 14.6182 15.8903C14.7323 15.5814 14.9085 15.2991 15.1358 15.0609C15.3672 14.8215 15.6459 14.6329 15.9542 14.5071C16.2624 14.3814 16.5935 14.3211 16.9263 14.3303C17.2591 14.3394 17.5864 14.4177 17.8873 14.5603C18.1882 14.7028 18.4561 14.9064 18.674 15.1581L19.0692 15.6267L19.0979 15.6633C19.1951 15.7813 19.2892 15.8928 19.3688 15.9821C19.4485 16.0745 19.5633 16.1988 19.6987 16.2945C19.831 16.3885 20.1418 16.5654 20.5323 16.4427C20.7687 16.3643 20.9682 16.2022 21.0933 15.9869C21.1631 15.8657 21.2248 15.74 21.2782 15.6108C21.31 15.5396 21.3419 15.4631 21.3738 15.3813C21.4598 15.1741 21.5603 14.9318 21.7037 14.6242C21.8429 14.3215 22.0439 14.0511 22.2937 13.8306C22.5435 13.6101 22.8367 13.4443 23.1544 13.3437C23.4721 13.2432 23.8073 13.2101 24.1385 13.2468C24.4697 13.2834 24.7896 13.3889 25.0777 13.5564" fill="#F5CAC4"/>
<path d="M6.616 64.644C7.024 64.82 7.348 65.088 7.588 65.448C7.836 65.8 7.96 66.204 7.96 66.66C7.96 67.308 7.732 67.86 7.276 68.316C6.82 68.772 6.268 69 5.62 69H1.96V60.6H5.344C5.968 60.6 6.5 60.824 6.94 61.272C7.38 61.712 7.6 62.24 7.6 62.856C7.6 63.64 7.272 64.236 6.616 64.644ZM5.344 61.392H2.8V64.32H5.344C5.736 64.32 6.068 64.18 6.34 63.9C6.62 63.612 6.76 63.264 6.76 62.856C6.76 62.456 6.62 62.112 6.34 61.824C6.068 61.536 5.736 61.392 5.344 61.392ZM5.62 68.208C6.036 68.208 6.388 68.06 6.676 67.764C6.972 67.46 7.12 67.092 7.12 66.66C7.12 66.236 6.972 65.872 6.676 65.568C6.388 65.264 6.036 65.112 5.62 65.112H2.8V68.208H5.62ZM14.3094 68.244C13.7014 68.844 12.9574 69.144 12.0774 69.144C11.1974 69.144 10.4494 68.844 9.83341 68.244C9.22541 67.636 8.92141 66.888 8.92141 66C8.92141 65.112 9.22541 64.368 9.83341 63.768C10.4494 63.16 11.1974 62.856 12.0774 62.856C12.9574 62.856 13.7014 63.16 14.3094 63.768C14.9254 64.368 15.2334 65.112 15.2334 66C15.2334 66.888 14.9254 67.636 14.3094 68.244ZM10.3974 67.692C10.8534 68.148 11.4134 68.376 12.0774 68.376C12.7414 68.376 13.3014 68.148 13.7574 67.692C14.2134 67.228 14.4414 66.664 14.4414 66C14.4414 65.336 14.2134 64.776 13.7574 64.32C13.3014 63.856 12.7414 63.624 12.0774 63.624C11.4134 63.624 10.8534 63.856 10.3974 64.32C9.94141 64.776 9.71341 65.336 9.71341 66C9.71341 66.664 9.94141 67.228 10.3974 67.692ZM20.7828 63H21.5748V69H20.7828V68.064C20.3348 68.784 19.6628 69.144 18.7668 69.144C18.0388 69.144 17.4628 68.924 17.0388 68.484C16.6228 68.036 16.4148 67.436 16.4148 66.684V63H17.2068V66.684C17.2068 67.22 17.3468 67.636 17.6268 67.932C17.9148 68.228 18.3188 68.376 18.8388 68.376C19.4148 68.376 19.8828 68.196 20.2428 67.836C20.6028 67.468 20.7828 66.904 20.7828 66.144V63ZM28.4102 63H29.2022V71.4H28.4102V67.824C27.8582 68.704 27.0502 69.144 25.9862 69.144C25.1302 69.144 24.3982 68.84 23.7902 68.232C23.1902 67.624 22.8902 66.88 22.8902 66C22.8902 65.12 23.1902 64.376 23.7902 63.768C24.3982 63.16 25.1302 62.856 25.9862 62.856C27.0502 62.856 27.8582 63.296 28.4102 64.176V63ZM24.3662 67.692C24.8222 68.148 25.3822 68.376 26.0462 68.376C26.7102 68.376 27.2702 68.148 27.7262 67.692C28.1822 67.228 28.4102 66.664 28.4102 66C28.4102 65.336 28.1822 64.776 27.7262 64.32C27.2702 63.856 26.7102 63.624 26.0462 63.624C25.3822 63.624 24.8222 63.856 24.3662 64.32C23.9102 64.776 23.6822 65.336 23.6822 66C23.6822 66.664 23.9102 67.228 24.3662 67.692ZM35.1031 63H35.8951V69H35.1031V68.064C34.6551 68.784 33.9831 69.144 33.0871 69.144C32.3591 69.144 31.7831 68.924 31.3591 68.484C30.9431 68.036 30.7351 67.436 30.7351 66.684V63H31.5271V66.684C31.5271 67.22 31.6671 67.636 31.9471 67.932C32.2351 68.228 32.6391 68.376 33.1591 68.376C33.7351 68.376 34.2031 68.196 34.5631 67.836C34.9231 67.468 35.1031 66.904 35.1031 66.144V63ZM40.3425 62.856C41.2305 62.856 41.9465 63.172 42.4905 63.804C43.0425 64.428 43.3185 65.168 43.3185 66.024C43.3185 66.112 43.3105 66.236 43.2945 66.396H38.0265C38.1065 67.004 38.3625 67.488 38.7945 67.848C39.2345 68.2 39.7745 68.376 40.4145 68.376C40.8705 68.376 41.2625 68.284 41.5905 68.1C41.9265 67.908 42.1785 67.66 42.3465 67.356L43.0425 67.764C42.7785 68.188 42.4185 68.524 41.9625 68.772C41.5065 69.02 40.9865 69.144 40.4025 69.144C39.4585 69.144 38.6905 68.848 38.0985 68.256C37.5065 67.664 37.2105 66.912 37.2105 66C37.2105 65.104 37.5025 64.356 38.0865 63.756C38.6705 63.156 39.4225 62.856 40.3425 62.856ZM40.3425 63.624C39.7185 63.624 39.1945 63.812 38.7705 64.188C38.3545 64.556 38.1065 65.036 38.0265 65.628H42.5025C42.4225 64.996 42.1785 64.504 41.7705 64.152C41.3625 63.8 40.8865 63.624 40.3425 63.624ZM47.5825 63.768H45.8545V67.404C45.8545 67.732 45.9185 67.968 46.0465 68.112C46.1745 68.248 46.3665 68.32 46.6225 68.328C46.8785 68.328 47.1985 68.32 47.5825 68.304V69C46.7425 69.128 46.1105 69.068 45.6865 68.82C45.2705 68.572 45.0625 68.1 45.0625 67.404V63.768H43.8025V63H45.0625V61.56L45.8545 61.32V63H47.5825V63.768Z" fill="#F5CAC4"/>
</svg>
