<svg width="24" height="27" viewBox="0 0 24 27" fill="none" xmlns="http://www.w3.org/2000/svg">
<g clip-path="url(#clip0_10_215)">
<path d="M5.6842 0.441895C5.15131 0.441895 4.7467 0.767571 4.45559 1.112C4.16792 1.45587 3.94539 1.86339 3.73568 2.33059C3.31628 3.26499 2.96249 4.44891 2.65608 5.7448C2.25295 7.44991 1.94062 9.31417 1.77384 10.9568H3.56989C3.73272 9.48468 4.01496 7.77957 4.3717 6.27907C4.65789 5.07412 4.99341 3.98455 5.31414 3.27068C5.47203 2.91374 5.63486 2.65343 5.73355 2.53577C5.76809 2.49428 5.77302 2.49428 5.77795 2.48803H18.222C18.227 2.49428 18.2319 2.49428 18.2664 2.53577C18.3651 2.65343 18.528 2.91374 18.6858 3.27068C19.0066 3.98455 19.3421 5.07412 19.6283 6.27907C19.9835 7.77957 20.2697 9.48468 20.4276 10.9568H22.2237C22.0609 9.31417 21.7451 7.44991 21.3454 5.7448C21.0395 4.44891 20.6842 3.26499 20.2648 2.33059C20.0526 1.86339 19.8306 1.45587 19.5444 1.112C19.2533 0.767571 18.8487 0.441895 18.3158 0.441895H5.6842ZM0.947361 11.9798C-0.0394809 11.9798 -0.0394809 14.5943 0.947361 14.5943H23.0526C24.0395 14.5943 24.0395 11.9798 23.0526 11.9798H0.947361ZM2.28947 15.6174C2.31167 15.7424 2.33289 15.8732 2.35361 16.0039L2.5268 16.2028L3.03157 15.6174H2.28947ZM4.29276 15.6174L3.15591 16.9247L5.6842 19.8347L8.21052 16.9247L7.07565 15.6174H4.29276ZM8.33881 15.6174L8.8421 16.1971L9.34539 15.6174H8.33881ZM10.6085 15.6174L9.47368 16.9247L12 19.8347L14.5263 16.9247L13.3914 15.6174H10.6085ZM14.6546 15.6174L15.1579 16.1971L15.6612 15.6174H14.6546ZM16.9243 15.6174L15.7895 16.9247L18.3158 19.8347L20.8421 16.9247L19.7072 15.6174H16.9243ZM20.9704 15.6174L21.4737 16.1971L21.6464 15.9982C21.6661 15.8675 21.6908 15.7424 21.7105 15.6174H20.9704ZM8.8421 17.6522L6.31085 20.5622L8.83716 23.4723L11.3684 20.5622L8.8421 17.6522ZM15.1579 17.6522L12.6316 20.5622L15.1579 23.4723L17.6842 20.5622L15.1579 17.6522ZM2.59637 17.7317C2.78486 19.2038 2.9694 20.818 3.25558 22.2673C3.27532 22.3697 3.29654 22.4663 3.31726 22.5629L5.05262 20.5622L2.59637 17.7317ZM21.3997 17.7374L18.9474 20.5622L20.6842 22.5629C20.7039 22.4606 20.7237 22.364 20.7434 22.2673C21.0296 20.818 21.2171 19.2095 21.3997 17.7374ZM5.6842 21.2841L3.59358 23.694C3.77318 24.3305 3.98141 24.8875 4.22072 25.3195C4.62828 26.0527 5.06249 26.4165 5.6842 26.4165H6.28618L8.21052 24.1941L5.6842 21.2841ZM12 21.2897L9.47368 24.2055L11.3931 26.4165H12.6069L14.5263 24.1998L12 21.2897ZM18.3158 21.2897L15.7895 24.1998L17.7138 26.4165H18.3158C18.9375 26.4165 19.3717 26.0527 19.7812 25.3195C20.0181 24.8875 20.2253 24.3305 20.403 23.694L18.3158 21.2897ZM8.84703 24.9273L7.54934 26.4165H10.1398L8.84703 24.9273ZM15.1579 24.9273L13.8651 26.4165H16.4507L15.1579 24.9273Z" fill="white"/>
</g>
<defs>
<clipPath id="clip0_10_215">
<rect width="24" height="26.5263" fill="white"/>
</clipPath>
</defs>
</svg>
