<svg width="354" height="97" viewBox="0 0 354 97" fill="none" xmlns="http://www.w3.org/2000/svg">
<rect x="189.5" y="0.5" width="72" height="72" rx="11.5" fill="white" stroke="#F28482"/>
<rect x="281.5" y="0.5" width="72" height="72" rx="11.5" fill="white" stroke="#F28482"/>
<rect x="95.5" y="0.5" width="72" height="72" rx="11.5" fill="white" stroke="#F28482"/>
<g clip-path="url(#clip0_99_55)">
<path d="M120.721 12.2015C121.197 12.4778 121.649 12.8441 121.81 13.388C121.821 13.4456 121.832 13.5032 121.844 13.5628C121.895 13.5472 121.946 13.5316 121.999 13.5159C122.863 13.3294 123.821 13.3743 124.578 13.8558C125.067 14.2737 125.439 14.7767 125.555 15.4183C125.577 15.8431 125.57 16.263 125.555 16.6878C125.555 16.8167 125.555 16.9456 125.555 17.0784C125.709 17.2298 125.709 17.2298 125.915 17.3528C126.484 17.7532 126.876 18.2405 127.02 18.9339C127.073 19.9896 127.073 19.9896 126.922 20.4964C127.017 20.5257 127.11 20.555 127.208 20.5862C129.115 21.1937 130.8 22.1683 131.804 23.9691C131.853 24.0384 131.853 24.0384 131.902 24.1097C131.967 24.1097 132.031 24.1097 132.098 24.1097C132.223 23.9446 132.223 23.9446 132.348 23.7308C133.484 21.9876 135.109 21.0482 137.078 20.4964C137.055 20.4163 137.055 20.4163 137.031 20.3353C136.853 19.5257 136.933 18.7591 137.371 18.055C137.699 17.5901 138.056 17.2708 138.543 16.9808C138.52 16.9007 138.52 16.9007 138.496 16.8196C138.291 15.8919 138.459 15.1331 138.958 14.347C139.334 13.8431 139.789 13.5999 140.398 13.4651C140.985 13.4202 141.587 13.39 142.156 13.5628C142.166 13.5062 142.177 13.4495 142.187 13.3919C142.334 12.9105 142.728 12.5403 143.13 12.2532C143.842 11.8812 144.701 11.8577 145.465 12.0833C146.042 12.3431 146.504 12.7308 146.844 13.2698C146.844 13.3665 146.844 13.4632 146.844 13.5628C146.894 13.5472 146.944 13.5316 146.995 13.5159C147.833 13.3362 148.727 13.3616 149.472 13.8021C150.028 14.2142 150.423 14.7298 150.555 15.4183C150.577 15.8431 150.57 16.263 150.555 16.6878C150.555 16.8167 150.555 16.9456 150.555 17.0784C150.709 17.2298 150.709 17.2298 150.915 17.3528C151.484 17.7532 151.876 18.2405 152.02 18.9339C152.107 19.7552 152.026 20.4056 151.531 21.0823C151.255 21.3655 150.961 21.6155 150.652 21.8636C150.588 21.928 150.523 21.9925 150.457 22.0589C150.489 22.1556 150.521 22.2523 150.555 22.3519C150.608 23.0521 150.597 23.6771 150.262 24.305C150.229 24.3646 150.197 24.4251 150.164 24.4866C149.825 25.0345 149.312 25.3421 148.705 25.5374C148.458 25.5823 148.224 25.5872 147.973 25.5862C147.883 25.5872 147.792 25.5872 147.698 25.5872C147.437 25.5745 147.196 25.5355 146.941 25.4769C146.907 25.5345 146.873 25.5921 146.837 25.6517C146.444 26.2806 146.073 26.6478 145.409 26.972C144.455 27.1702 143.681 27.0667 142.864 26.5374C142.473 26.2425 142.276 25.9046 142.059 25.4769C141.988 25.4925 141.918 25.5071 141.846 25.5237C140.866 25.7034 140.092 25.5267 139.245 25.0189C138.671 24.4114 138.431 23.7542 138.434 22.9319C138.433 22.8294 138.433 22.7278 138.433 22.6224C138.445 22.3519 138.445 22.3519 138.543 22.0589C136.461 22.5901 134.898 23.2093 133.674 25.0618C133.464 25.4329 133.339 25.8314 133.208 26.2347C133.186 26.303 133.163 26.3714 133.14 26.4407C133.085 26.6077 133.031 26.7747 132.977 26.9417C133.062 26.9407 133.146 26.9398 133.232 26.9388C134.032 26.931 134.833 26.9251 135.633 26.9212C136.044 26.9192 136.455 26.9163 136.867 26.9124C137.265 26.9075 137.662 26.9056 138.06 26.9046C138.211 26.9036 138.361 26.9026 138.513 26.8997C139.554 26.886 140.537 26.9241 141.369 27.6312C141.819 28.1351 142.064 28.8079 142.107 29.4808C142.069 30.1175 141.835 30.7444 141.43 31.2327C141.348 31.2991 141.265 31.3655 141.18 31.4339C141.102 31.5042 141.022 31.5745 140.941 31.6468C140.445 31.9983 139.982 32.0433 139.385 32.0316C139.264 32.0296 139.142 32.0286 139.017 32.0267C138.925 32.0237 138.833 32.0218 138.738 32.0198C138.742 32.5267 138.749 33.0335 138.759 33.5403C138.762 33.7122 138.764 33.8851 138.765 34.0569C138.776 35.4681 138.867 36.7239 139.91 37.7816C140.248 38.0901 140.599 38.3831 140.949 38.6771C143.406 40.7386 145.018 43.973 145.354 47.1507C145.611 50.8382 144.715 54.4808 142.254 57.3128C142.185 57.3939 142.115 57.4749 142.044 57.5579C139.92 59.9886 136.81 61.723 133.562 62.0003C129.635 62.1937 126.271 61.3401 123.211 58.7776C123.142 58.72 123.072 58.6624 123.001 58.6038C120.512 56.4974 118.918 53.1761 118.637 49.9466C118.411 46.3421 119.307 42.8314 121.701 40.0472C122.342 39.3235 122.998 38.6751 123.757 38.0775C124.521 37.4319 124.948 36.6009 125.164 35.6331C125.179 35.3558 125.189 35.0814 125.195 34.804C125.198 34.6849 125.198 34.6849 125.201 34.5628C125.207 34.3089 125.213 34.056 125.219 33.8021C125.224 33.6292 125.228 33.4573 125.231 33.2845C125.242 32.8636 125.252 32.4417 125.262 32.0198C125.169 32.0218 125.076 32.0237 124.98 32.0257C124.796 32.0276 124.796 32.0276 124.609 32.0296C124.488 32.0316 124.367 32.0335 124.242 32.0355C123.63 32.0071 123.214 31.7913 122.747 31.4095C122.146 30.6751 121.849 30.0599 121.941 29.0901C122.073 28.3987 122.39 27.8929 122.918 27.43C123.523 27.0384 124.053 26.929 124.771 26.93C124.838 26.93 124.906 26.93 124.976 26.93C125.199 26.93 125.422 26.931 125.645 26.9319C125.8 26.9319 125.954 26.9319 126.109 26.9319C126.517 26.9329 126.924 26.9339 127.331 26.9349C127.746 26.9358 128.162 26.9358 128.578 26.9368C129.393 26.9378 130.208 26.9398 131.023 26.9417C130.949 26.7093 130.875 26.4769 130.8 26.2454C130.77 26.1478 130.77 26.1478 130.737 26.0482C130.537 25.4329 130.238 24.9212 129.852 24.4026C129.8 24.3314 129.747 24.2601 129.693 24.1868C128.658 22.8919 127.001 22.4358 125.457 22.0589C125.489 22.1556 125.521 22.2523 125.555 22.3519C125.641 23.2816 125.477 23.9788 124.999 24.7747C124.417 25.3255 123.767 25.5892 122.973 25.5862C122.883 25.5872 122.792 25.5872 122.698 25.5872C122.437 25.5745 122.196 25.5355 121.941 25.4769C121.893 25.5589 121.845 25.6419 121.795 25.7269C121.362 26.3694 120.757 26.8812 119.988 27.0394C119.276 27.1331 118.656 27.013 118.035 26.6487C117.618 26.303 117.279 25.9124 116.961 25.4769C116.907 25.4925 116.853 25.5071 116.797 25.5237C115.853 25.7347 115.057 25.5062 114.245 25.0189C113.673 24.4144 113.431 23.7581 113.434 22.9378C113.433 22.8372 113.433 22.7366 113.433 22.6321C113.443 22.3909 113.474 22.1907 113.543 21.9612C113.492 21.9251 113.441 21.89 113.39 21.8538C112.754 21.3958 112.172 20.9026 111.98 20.1058C111.882 19.2405 112.004 18.5745 112.507 17.8626C112.81 17.4866 113.129 17.2269 113.543 16.9808C113.527 16.9271 113.512 16.8743 113.496 16.8196C113.291 15.8919 113.459 15.1331 113.958 14.347C114.334 13.8431 114.789 13.5999 115.398 13.4651C115.985 13.4202 116.587 13.39 117.156 13.5628C117.179 13.4944 117.2 13.4261 117.224 13.3548C117.512 12.7239 117.905 12.3763 118.529 12.0901C119.26 11.8616 120.022 11.8851 120.721 12.2015ZM118.832 14.0609C118.627 14.3968 118.531 14.7737 118.425 15.1507C118.328 15.4192 118.265 15.5452 118.035 15.7112C117.521 15.7816 117.258 15.7357 116.82 15.4612C116.42 15.2171 116.143 15.1634 115.681 15.2523C115.476 15.3148 115.476 15.3148 115.289 15.5159C115.169 15.9261 115.186 16.2757 115.301 16.6878C115.367 16.7679 115.434 16.8489 115.502 16.9319C115.748 17.2483 115.734 17.4612 115.733 17.8509C115.68 18.1097 115.609 18.1907 115.398 18.348C115.174 18.43 115.174 18.43 114.922 18.4944C114.402 18.64 114.046 18.765 113.738 19.2269C113.738 19.6595 113.784 19.8519 114.074 20.179C114.409 20.4271 114.775 20.5208 115.177 20.6155C115.425 20.7005 115.535 20.7757 115.691 20.9847C115.776 21.6038 115.631 21.9153 115.312 22.4388C115.164 22.7181 115.152 22.9202 115.203 23.2308C115.295 23.4788 115.344 23.5931 115.582 23.7161C116.11 23.8411 116.411 23.8167 116.881 23.5374C116.969 23.4817 116.969 23.4817 117.059 23.4261C117.426 23.2181 117.621 23.2142 118.035 23.3284C118.347 23.5628 118.404 23.8274 118.505 24.1946C118.678 24.7347 118.801 25.0091 119.305 25.2816C119.609 25.3216 119.609 25.3216 119.891 25.1839C120.327 24.7874 120.462 24.4105 120.597 23.8431C120.684 23.5872 120.745 23.4837 120.965 23.3284C121.322 23.2171 121.488 23.2034 121.833 23.3558C121.928 23.4134 122.021 23.471 122.118 23.5296C122.61 23.7933 122.894 23.8704 123.432 23.723C123.656 23.5882 123.712 23.4759 123.797 23.2308C123.821 22.7757 123.753 22.431 123.498 22.053C123.237 21.6585 123.255 21.4505 123.309 20.9847C123.534 20.6683 123.812 20.6136 124.176 20.514C124.718 20.3421 124.979 20.2112 125.262 19.7151C125.343 19.4661 125.343 19.4661 125.262 19.2269C124.939 18.7894 124.605 18.6595 124.105 18.512C123.806 18.4173 123.532 18.2786 123.309 18.055C123.254 17.6224 123.226 17.2835 123.498 16.9319C123.564 16.8509 123.631 16.7708 123.699 16.6878C123.814 16.2757 123.831 15.9261 123.711 15.5159C123.436 15.2562 123.221 15.2308 122.849 15.2083C122.406 15.2366 122.104 15.472 121.746 15.7112C121.557 15.7405 121.557 15.7405 121.355 15.7415C121.289 15.7435 121.223 15.7444 121.154 15.7464C120.899 15.6985 120.826 15.6263 120.672 15.4183C120.575 15.1507 120.575 15.1507 120.488 14.8441C120.331 14.3519 120.228 14.0472 119.793 13.7581C119.376 13.6712 119.122 13.7386 118.832 14.0609ZM143.832 14.0609C143.627 14.3968 143.531 14.7737 143.425 15.1507C143.328 15.4192 143.266 15.5462 143.035 15.7112C142.406 15.7835 142.193 15.6741 141.668 15.3206C141.295 15.2269 140.948 15.1673 140.579 15.2952C140.356 15.4466 140.29 15.555 140.203 15.8089C140.18 16.2444 140.222 16.5921 140.502 16.9319C140.748 17.2483 140.734 17.4612 140.733 17.8509C140.68 18.1097 140.609 18.1907 140.398 18.348C140.17 18.4339 140.17 18.4339 139.916 18.5003C139.51 18.6087 139.166 18.7103 138.854 19.0003C138.682 19.3372 138.739 19.5511 138.836 19.9105C139.122 20.2659 139.386 20.3782 139.818 20.5023C140.48 20.6927 140.48 20.6927 140.691 20.9847C140.776 21.6038 140.631 21.9153 140.312 22.4388C140.164 22.7181 140.152 22.9202 140.203 23.2308C140.295 23.4788 140.344 23.5931 140.582 23.7161C141.11 23.8411 141.411 23.8167 141.881 23.5374C141.969 23.4817 141.969 23.4817 142.059 23.4261C142.426 23.2181 142.621 23.2142 143.035 23.3284C143.347 23.5628 143.404 23.8274 143.505 24.1946C143.678 24.7347 143.801 25.0091 144.305 25.2816C144.609 25.3216 144.609 25.3216 144.891 25.1839C145.327 24.7874 145.462 24.4105 145.597 23.8431C145.684 23.5872 145.745 23.4837 145.965 23.3284C146.322 23.2171 146.488 23.2034 146.833 23.3558C146.928 23.4134 147.021 23.471 147.118 23.5296C147.61 23.7933 147.894 23.8704 148.432 23.723C148.656 23.5882 148.712 23.4759 148.797 23.2308C148.821 22.7757 148.753 22.431 148.498 22.053C148.237 21.6585 148.255 21.4505 148.309 20.9847C148.521 20.6985 148.732 20.637 149.071 20.5569C149.554 20.4202 149.83 20.2874 150.164 19.9105C150.302 19.5745 150.302 19.5745 150.262 19.2269C149.957 18.7796 149.602 18.6585 149.105 18.512C148.806 18.4173 148.532 18.2786 148.309 18.055C148.254 17.6224 148.226 17.2835 148.498 16.9319C148.564 16.8509 148.631 16.7708 148.699 16.6878C148.814 16.2757 148.831 15.9261 148.711 15.5159C148.438 15.2581 148.235 15.2191 147.865 15.1946C147.507 15.2366 147.263 15.4085 146.962 15.598C146.607 15.7845 146.358 15.765 145.965 15.7112C145.65 15.4837 145.591 15.2073 145.488 14.8441C145.331 14.3519 145.228 14.0472 144.793 13.7581C144.376 13.6712 144.122 13.7386 143.832 14.0609ZM123.895 28.9925C123.724 29.2249 123.697 29.3382 123.711 29.6273C123.825 29.9515 123.904 30.0589 124.187 30.262C124.543 30.3177 124.896 30.3167 125.256 30.3167C126.494 30.3226 126.494 30.3226 126.922 30.7503C126.933 30.9046 126.937 31.0599 126.939 31.2142C126.941 31.3636 126.941 31.3636 126.943 31.5149C126.943 31.6233 126.944 31.7317 126.945 31.8441C126.946 31.9554 126.946 32.0667 126.947 32.1819C126.949 32.4192 126.95 32.6566 126.951 32.8939C126.952 33.2523 126.957 33.6116 126.961 33.971C126.975 35.9339 126.748 37.5521 125.36 39.0589C125.044 39.3616 124.7 39.6302 124.359 39.9046C122.097 41.7591 120.697 44.6194 120.398 47.5101C120.142 50.6116 121.004 53.7259 123.032 56.1204C123.124 56.2259 123.216 56.3294 123.309 56.4339C123.354 56.4847 123.398 56.5355 123.445 56.5882C125.209 58.5491 127.896 59.9847 130.535 60.2425C130.598 60.2483 130.661 60.2552 130.726 60.262C133.882 60.5648 136.818 59.6605 139.324 57.7278C141.659 55.7991 143.246 53.0511 143.601 50.0218C143.88 46.9222 143.082 43.8177 141.082 41.3948C140.399 40.5999 139.677 39.8421 138.846 39.2005C137.859 38.431 137.289 37.2386 137.078 36.0237C137.068 35.845 137.063 35.6673 137.062 35.4886C137.062 35.3841 137.061 35.2796 137.06 35.1712C137.059 35.0042 137.059 35.0042 137.059 34.8323C137.058 34.7171 137.058 34.6009 137.057 34.4817C137.056 34.2376 137.055 33.9935 137.055 33.7493C137.054 33.3753 137.051 33.0013 137.048 32.6263C137.047 32.389 137.047 32.1526 137.046 31.9153C137.045 31.803 137.044 31.6907 137.042 31.5745C137.043 31.471 137.043 31.3665 137.043 31.2601C137.043 31.1224 137.043 31.1224 137.042 30.9817C137.085 30.7054 137.148 30.6224 137.371 30.4573C137.659 30.3607 137.846 30.3489 138.146 30.3489C138.286 30.347 138.286 30.347 138.43 30.345C138.627 30.3421 138.823 30.3421 139.021 30.3431C139.534 30.3421 139.534 30.3421 139.989 30.137C140.22 29.8753 140.301 29.7151 140.301 29.3646C140.203 29.0901 140.143 28.9671 139.91 28.7972C139.587 28.6888 139.348 28.6868 139.007 28.6858C138.879 28.6849 138.751 28.6849 138.619 28.6839C138.478 28.6839 138.335 28.6839 138.193 28.6839C138.044 28.6829 137.895 28.6829 137.745 28.6819C137.339 28.681 136.934 28.68 136.527 28.68C136.273 28.679 136.021 28.679 135.767 28.679C134.974 28.6771 134.18 28.6761 133.387 28.6761C132.471 28.6751 131.555 28.6741 130.639 28.6712C129.931 28.6692 129.224 28.6683 128.516 28.6673C128.093 28.6673 127.67 28.6673 127.247 28.6653C126.849 28.6634 126.451 28.6634 126.054 28.6644C125.907 28.6644 125.762 28.6644 125.616 28.6634C125.417 28.6614 125.217 28.6624 125.018 28.6634C124.906 28.6634 124.795 28.6634 124.68 28.6634C124.347 28.7034 124.164 28.7952 123.895 28.9925Z" fill="#F28482"/>
<path d="M124.773 42.8593C125.071 43.1191 125.155 43.2666 125.196 43.6601C125.157 44.1093 125.015 44.3886 124.798 44.7754C123.785 46.6982 123.507 48.8623 124.09 50.9648C124.489 52.2099 125.101 53.2666 125.951 54.2607C126.18 54.5478 126.286 54.7256 126.263 55.0966C126.124 55.5068 126.033 55.6445 125.652 55.8476C125.259 55.8955 125.008 55.8642 124.676 55.6523C124.494 55.4521 124.327 55.2558 124.163 55.042C124.116 54.9814 124.069 54.9199 124.021 54.8574C122.311 52.5957 121.678 49.9443 122.009 47.1445C122.19 46.0566 122.532 45.0488 123.016 44.0615C123.062 43.9648 123.062 43.9648 123.11 43.8662C123.509 43.0888 123.886 42.6455 124.773 42.8593Z" fill="#F28482"/>
<path d="M146.178 17.481C146.644 17.8989 147 18.562 147.066 19.1841C147.094 20.0327 146.937 20.6362 146.376 21.2847C145.823 21.813 145.262 22.0161 144.512 22.1011C143.829 22.0688 143.155 21.8218 142.651 21.3569C142.084 20.7134 141.892 20.0737 141.923 19.2202C142.007 18.5884 142.291 18.0171 142.742 17.5669C143.815 16.7856 145.064 16.7378 146.178 17.481ZM143.816 19.1294C143.703 19.4126 143.703 19.4126 143.719 19.7153C143.895 20.02 144.02 20.1665 144.347 20.3013C144.676 20.3013 144.827 20.2036 145.086 20.0083C145.299 19.688 145.343 19.5972 145.281 19.2271C145.037 18.9038 144.896 18.7573 144.494 18.6831C144.137 18.7515 144.026 18.8345 143.816 19.1294Z" fill="#F28482"/>
<path d="M121.178 17.481C121.644 17.8989 122 18.562 122.066 19.1841C122.094 20.0327 121.937 20.6362 121.376 21.2847C120.823 21.813 120.262 22.0161 119.512 22.1011C118.829 22.0688 118.155 21.8218 117.651 21.3569C117.084 20.7134 116.892 20.0737 116.923 19.2202C117.007 18.5884 117.291 18.0171 117.742 17.5669C118.815 16.7856 120.064 16.7378 121.178 17.481ZM118.719 19.2271C118.719 19.5757 118.744 19.8013 118.938 20.0933C119.168 20.2407 119.324 20.2876 119.597 20.3013C119.938 20.1421 120.071 20.0308 120.281 19.7153C120.266 19.3716 120.219 19.1782 120.018 18.897C119.799 18.7192 119.799 18.7192 119.507 18.6831C119.097 18.7583 118.956 18.8882 118.719 19.2271Z" fill="#F28482"/>
</g>
<path d="M121.216 93L118.12 84.6H119.032L121.648 91.884L124.264 84.6H125.176L122.08 93H121.216ZM130.586 87H131.378V93H130.586V91.824C130.034 92.704 129.226 93.144 128.162 93.144C127.306 93.144 126.574 92.84 125.966 92.232C125.366 91.624 125.066 90.88 125.066 90C125.066 89.12 125.366 88.376 125.966 87.768C126.574 87.16 127.306 86.856 128.162 86.856C129.226 86.856 130.034 87.296 130.586 88.176V87ZM126.542 91.692C126.998 92.148 127.558 92.376 128.222 92.376C128.886 92.376 129.446 92.148 129.902 91.692C130.358 91.228 130.586 90.664 130.586 90C130.586 89.336 130.358 88.776 129.902 88.32C129.446 87.856 128.886 87.624 128.222 87.624C127.558 87.624 126.998 87.856 126.542 88.32C126.086 88.776 125.858 89.336 125.858 90C125.858 90.664 126.086 91.228 126.542 91.692ZM133.679 88.572C133.679 88.844 133.799 89.06 134.039 89.22C134.279 89.38 134.571 89.504 134.915 89.592C135.259 89.68 135.603 89.78 135.947 89.892C136.291 89.996 136.583 90.176 136.823 90.432C137.063 90.68 137.183 91.008 137.183 91.416C137.183 91.928 136.979 92.344 136.571 92.664C136.171 92.984 135.651 93.144 135.011 93.144C134.435 93.144 133.943 93.016 133.535 92.76C133.135 92.504 132.855 92.172 132.695 91.764L133.367 91.368C133.479 91.68 133.679 91.928 133.967 92.112C134.263 92.288 134.611 92.376 135.011 92.376C135.403 92.376 135.731 92.3 135.995 92.148C136.259 91.988 136.391 91.744 136.391 91.416C136.391 91.144 136.271 90.928 136.031 90.768C135.791 90.608 135.499 90.484 135.155 90.396C134.811 90.308 134.467 90.212 134.123 90.108C133.779 89.996 133.487 89.816 133.247 89.568C133.007 89.312 132.887 88.98 132.887 88.572C132.887 88.084 133.079 87.676 133.463 87.348C133.855 87.02 134.347 86.856 134.939 86.856C135.427 86.856 135.855 86.968 136.223 87.192C136.591 87.408 136.863 87.704 137.039 88.08L136.379 88.464C136.147 87.904 135.667 87.624 134.939 87.624C134.595 87.624 134.299 87.708 134.051 87.876C133.803 88.036 133.679 88.268 133.679 88.572ZM141.1 86.856C141.988 86.856 142.704 87.172 143.248 87.804C143.8 88.428 144.076 89.168 144.076 90.024C144.076 90.112 144.068 90.236 144.052 90.396H138.784C138.864 91.004 139.12 91.488 139.552 91.848C139.992 92.2 140.532 92.376 141.172 92.376C141.628 92.376 142.02 92.284 142.348 92.1C142.684 91.908 142.936 91.66 143.104 91.356L143.8 91.764C143.536 92.188 143.176 92.524 142.72 92.772C142.264 93.02 141.744 93.144 141.16 93.144C140.216 93.144 139.448 92.848 138.856 92.256C138.264 91.664 137.968 90.912 137.968 90C137.968 89.104 138.26 88.356 138.844 87.756C139.428 87.156 140.18 86.856 141.1 86.856ZM141.1 87.624C140.476 87.624 139.952 87.812 139.528 88.188C139.112 88.556 138.864 89.036 138.784 89.628H143.26C143.18 88.996 142.936 88.504 142.528 88.152C142.12 87.8 141.644 87.624 141.1 87.624Z" fill="black"/>
<rect x="0.5" y="0.5" width="72" height="72" rx="11.5" fill="white" stroke="#F28482"/>
<path d="M31.8383 26.7902C30.8281 26.7902 29.8592 27.1915 29.1449 27.9058C28.4305 28.6201 28.0292 29.589 28.0292 30.5992C28.0292 31.6095 28.4305 32.5783 29.1449 33.2926C29.8592 34.007 30.8281 34.4083 31.8383 34.4083C32.8485 34.4083 33.8174 34.007 34.5317 33.2926C35.246 32.5783 35.6473 31.6095 35.6473 30.5992C35.6473 29.589 35.246 28.6201 34.5317 27.9058C33.8174 27.1915 32.8485 26.7902 31.8383 26.7902ZM29.623 30.5992C29.623 30.0117 29.8564 29.4482 30.2718 29.0328C30.6873 28.6173 31.2507 28.3839 31.8383 28.3839C32.4258 28.3839 32.9893 28.6173 33.4047 29.0328C33.8202 29.4482 34.0536 30.0117 34.0536 30.5992C34.0536 31.1868 33.8202 31.7502 33.4047 32.1657C32.9893 32.5811 32.4258 32.8145 31.8383 32.8145C31.2507 32.8145 30.6873 32.5811 30.2718 32.1657C29.8564 31.7502 29.623 31.1868 29.623 30.5992Z" fill="#F28482"/>
<path d="M45.8792 16.1726L44.7508 13.4648C44.6036 13.1012 44.3417 12.7957 44.005 12.5946C43.8209 12.4827 43.6133 12.4152 43.3986 12.3975C43.184 12.3798 42.9681 12.4124 42.7682 12.4926C41.3976 13.0536 40.58 14.3955 40.1226 15.9016C39.5111 15.514 38.8656 15.1827 38.1942 14.9119C37.7565 14.7363 37.2674 14.7398 36.8324 14.9217C36.3973 15.1036 36.0513 15.4493 35.8689 15.8841L35.8673 15.8873C35.5963 16.546 35.386 17.2175 35.2362 17.9018C33.8639 17.1782 32.3594 16.8212 31.0079 17.3838C30.8089 17.4679 30.6321 17.5967 30.4911 17.7604C30.3501 17.9241 30.2488 18.1181 30.1951 18.3273C30.0915 18.7018 30.1234 19.1098 30.2684 19.4796L31.7777 23.1213C31.5717 23.3753 31.3977 23.6536 31.2598 23.9501C31.1928 24.0946 31.1328 24.2284 31.0797 24.3517L30.8788 24.1174C30.516 23.6978 30.0696 23.3585 29.5683 23.121C29.067 22.8836 28.5217 22.7532 27.9671 22.7382C27.4126 22.7232 26.8611 22.8239 26.3476 23.0339C25.8342 23.244 25.3702 23.5587 24.9852 23.958L24.982 23.9612C24.6042 24.357 24.3116 24.8259 24.1221 25.3391C23.9326 25.8523 23.8502 26.3989 23.8801 26.9451C23.91 27.4914 24.0514 28.0258 24.2958 28.5152C24.5401 29.0047 24.8821 29.4389 25.3007 29.7912L25.6227 30.0557C25.4898 30.1195 25.3438 30.1912 25.1844 30.2709C24.9918 30.3679 24.8073 30.4803 24.6329 30.6072L20.494 28.8907L20.4796 28.8859C20.1133 28.7385 19.7091 28.7133 19.3273 28.8142C19.1181 28.8679 18.9241 28.9691 18.7604 29.1101C18.5968 29.2511 18.4679 29.428 18.3838 29.627C17.8181 30.9849 18.1814 32.5005 18.9146 33.8807C18.1894 34.0592 17.485 34.2887 17.0929 34.4162L16.9495 34.464C16.5606 34.5868 16.1207 34.8418 15.8801 35.3087C15.6187 35.8123 15.6824 36.3702 15.9406 36.8754L16.0904 37.1718C16.3056 37.6021 16.5957 38.1759 16.9272 38.7337C15.4115 39.1879 14.0584 40.0055 13.4926 41.3857C13.4124 41.5856 13.3798 41.8014 13.3975 42.0161C13.4152 42.2308 13.4827 42.4384 13.5946 42.6224C13.7859 42.9523 14.0982 43.2185 14.4648 43.3683L17.5264 44.6433L17.4308 44.7358L15.327 46.8236C15.2155 46.9351 15.2314 47.0945 15.343 47.2061C17.3479 49.007 20.4462 49.007 22.4144 47.1455C22.2869 47.5407 22.2184 47.9583 22.212 48.3854V51.3498C22.212 51.4932 22.3395 51.6208 22.483 51.6048C25.2242 51.4614 27.4395 49.1982 27.4395 46.4092L27.4077 46.3088L45.535 49.5871C46.103 49.6901 46.6323 49.9454 47.0666 50.3257C47.5008 50.7061 47.8236 51.1972 48.0005 51.7467L49.658 56.8801C49.8493 57.8204 51.0286 58.0595 51.7936 57.2945L58.3599 50.7283C59.1249 49.9632 58.8858 48.7839 57.9455 48.5926L52.6813 47.0116C52.1325 46.8467 51.6383 46.5369 51.2506 46.1148C50.863 45.6927 50.5964 45.1739 50.4788 44.613L46.8132 27.1184C46.8822 27.0069 46.9481 26.8921 47.0108 26.7742C49.7775 26.7487 52.0152 24.5429 52.1586 21.8176C52.1745 21.6742 52.047 21.5467 51.9036 21.5467H48.9392C48.5283 21.5528 48.1204 21.6177 47.728 21.7395L47.7248 21.722C49.5608 19.7537 49.5544 16.6746 47.7598 14.6776C47.7112 14.6248 47.6436 14.5935 47.5719 14.5905C47.5002 14.5875 47.4302 14.6131 47.3773 14.6617L45.8792 16.1726ZM31.749 18.8915C31.7394 18.8664 31.733 18.8401 31.7299 18.8134C32.5587 18.5297 33.6998 18.7863 35.0497 19.6326C36.4219 20.4932 37.8212 21.8543 38.9496 23.3365C39.3082 23.805 39.9345 24.1493 40.5864 23.8815C41.2398 23.6138 41.4422 22.9285 41.3625 22.3468C41.1075 20.4964 41.133 18.5377 41.4948 16.9487C41.8486 15.3996 42.4702 14.4099 43.2511 14.021L43.2766 14.0688L45.2688 18.8533L45.2704 18.8548C45.7916 20.1283 46.2745 22.0535 46.2617 23.1628V23.1771C46.2761 25.9136 44.8114 27.689 42.5483 28.6357C42.0149 28.8535 41.4837 29.0017 40.9545 29.0803C40.3195 28.4684 39.4995 28.0845 38.6229 27.9886C38.4553 27.9731 38.2874 27.9609 38.1193 27.952L38.1718 27.8755C38.4787 27.4218 38.6891 26.91 38.79 26.3717C38.8909 25.8334 38.8803 25.2801 38.7586 24.7461C38.637 24.212 38.407 23.7087 38.0829 23.2672C37.7589 22.8257 37.3476 22.4555 36.8745 22.1794C36.2994 21.8462 35.65 21.6621 34.9856 21.644C34.3211 21.626 33.6627 21.7744 33.0702 22.0758L31.749 18.8915ZM29.5656 37.3726C29.6373 37.9735 29.8381 38.5233 30.1362 38.9998C30.0941 39.7446 29.9248 40.4766 29.6357 41.1642C28.689 43.4273 26.9136 44.8935 24.1771 44.8792H24.1612C23.0535 44.8935 21.1283 44.409 19.8549 43.8879H19.8533L15.0752 41.8957H15.0704L15.0226 41.8686C15.4099 41.0877 16.3996 40.4661 17.9488 40.1123C19.5361 39.7505 21.4948 39.7266 23.3452 39.9784C23.9636 40.0661 24.5995 39.7999 24.8481 39.1847C25.0935 38.5759 24.829 37.9448 24.3381 37.5687C22.8559 36.4403 21.4933 35.0394 20.6326 33.6672C19.7863 32.3173 19.5298 31.1745 19.8134 30.3474C19.8368 30.3506 19.8634 30.3569 19.8931 30.3665L23.5141 31.8694C22.8288 33.0966 22.8129 34.6585 23.6257 35.9494C23.9171 36.4128 24.3015 36.8108 24.7545 37.118C25.2076 37.4253 25.7195 37.6352 26.2578 37.7345C26.7962 37.8338 27.3492 37.8204 27.8821 37.695C28.415 37.5696 28.9161 37.335 29.3536 37.0061L29.513 36.8849C29.5279 37.0337 29.5454 37.1962 29.5656 37.3726ZM36.6833 18.8214C36.8108 18.0309 37.0291 17.2515 37.3399 16.4993C37.3601 16.4516 37.3978 16.4135 37.4452 16.3927C37.4926 16.372 37.5462 16.3702 37.5949 16.3877L37.5981 16.3893C38.3695 16.7001 39.0946 17.1001 39.7592 17.5767C39.568 18.8883 39.5552 20.3179 39.6843 21.6997C38.8017 20.6246 37.7943 19.6584 36.6833 18.8214ZM18.5847 38.3767C18.1862 37.7902 17.826 37.0714 17.5296 36.4849L17.3591 36.1502C17.34 36.1136 17.3245 36.0751 17.3128 36.0355C17.3509 36.0112 17.3922 35.9924 17.4356 35.9797L17.579 35.9319C18.1097 35.7613 19.0389 35.4601 19.8262 35.3087C20.6622 36.4166 21.6268 37.4214 22.6997 38.3018C21.3298 38.1675 19.9489 38.1937 18.5847 38.3767ZM36.0777 23.558C37.2682 24.2497 37.63 25.8307 36.8522 26.9798L36.6992 27.2029C36.5048 27.4898 36.339 27.7352 36.237 27.9169C36.1437 28.07 36.0799 28.2392 36.049 28.4158C36.022 28.5841 36.043 28.7566 36.1096 28.9136C36.1761 29.0706 36.2854 29.2057 36.4251 29.3035C36.5918 29.4139 36.7836 29.4808 36.9829 29.4979C37.1104 29.5138 37.257 29.517 37.3893 29.5202L37.4802 29.5218C37.7463 29.5282 38.0683 29.5362 38.4731 29.5744C39.7369 29.6939 40.8764 31.0247 40.6326 32.3682V32.373C40.5729 32.6956 40.4478 33.0025 40.2652 33.275C40.0825 33.5474 39.8461 33.7797 39.5704 33.9574C39.2948 34.1352 38.9857 34.2547 38.6621 34.3087C38.3386 34.3626 38.0074 34.3499 37.6889 34.2712C37.3989 34.1995 37.1869 34.1373 37.0036 34.0847L36.763 34.0162C36.6429 33.9817 36.5204 33.9566 36.3964 33.9413H36.3916C36.2409 33.9229 36.088 33.9426 35.9468 33.9985C35.8057 34.0545 35.6808 34.145 35.5836 34.2616C35.4697 34.4057 35.4039 34.5818 35.3955 34.7652C35.3921 34.8595 35.4007 34.9537 35.421 35.0457C35.4465 35.1637 35.4912 35.2896 35.5246 35.3804L35.5645 35.4904C35.633 35.6785 35.7175 35.9064 35.8083 36.2124C36.2004 37.5336 35.378 38.9218 34.0265 39.223C33.702 39.294 33.3662 39.2965 33.0407 39.2302C32.7152 39.164 32.4071 39.0305 32.1361 38.8383C31.8652 38.6461 31.6374 38.3995 31.4672 38.1141C31.2971 37.8288 31.1884 37.5111 31.1482 37.1814C31.114 36.8952 31.0869 36.6082 31.0669 36.3207L31.0446 36.053C31.0353 35.9084 31.0161 35.7647 30.9872 35.6227C30.9451 35.4 30.8361 35.1954 30.6748 35.0362C30.5564 34.9279 30.4122 34.8517 30.256 34.8148C30.0998 34.778 29.9367 34.7818 29.7823 34.8258C29.6172 34.8747 29.4612 34.9501 29.3202 35.0489C29.0946 35.2028 28.874 35.3638 28.6588 35.5318L28.3942 35.7311C28.1329 35.9279 27.8336 36.0683 27.5151 36.1433C27.1967 36.2182 26.8662 36.2261 26.5445 36.1665C26.2229 36.1068 25.9171 35.9809 25.6468 35.7968C25.3764 35.6126 25.1473 35.3742 24.974 35.0968C24.7953 34.8166 24.6773 34.5022 24.6273 34.1737C24.5774 33.8452 24.5967 33.5098 24.6841 33.1893C24.7714 32.8687 24.9249 32.5699 25.1345 32.3121C25.3442 32.0544 25.6055 31.8433 25.9016 31.6925C26.1916 31.5459 26.4036 31.4487 26.5901 31.3626C26.6984 31.3137 26.8036 31.2643 26.9056 31.2144C27.022 31.157 27.1654 31.0853 27.2881 30.996C27.5023 30.8488 27.6523 30.6253 27.7073 30.3713C27.7314 30.2338 27.7257 30.0928 27.6905 29.9578C27.6553 29.8228 27.5915 29.6969 27.5033 29.5888C27.4081 29.4715 27.3013 29.3641 27.1845 29.2684C27.0921 29.1908 26.9874 29.1058 26.8706 29.0134L26.8116 28.9656C26.6713 28.8551 26.5098 28.7233 26.3271 28.5703C26.0752 28.3582 25.8694 28.0968 25.7224 27.8021C25.5754 27.5075 25.4904 27.1858 25.4724 26.857C25.4545 26.5282 25.5041 26.1992 25.6182 25.8903C25.7323 25.5814 25.9085 25.2991 26.1358 25.0609C26.3672 24.8215 26.6459 24.6329 26.9542 24.5071C27.2624 24.3814 27.5935 24.3211 27.9263 24.3303C28.2591 24.3394 28.5864 24.4177 28.8873 24.5603C29.1882 24.7028 29.4561 24.9064 29.674 25.1581L30.0692 25.6267L30.0979 25.6633C30.1951 25.7813 30.2892 25.8928 30.3688 25.9821C30.4485 26.0745 30.5633 26.1988 30.6987 26.2945C30.831 26.3885 31.1418 26.5654 31.5323 26.4427C31.7687 26.3643 31.9682 26.2022 32.0933 25.9869C32.1631 25.8657 32.2248 25.74 32.2782 25.6108C32.31 25.5396 32.3419 25.4631 32.3738 25.3813C32.4598 25.1741 32.5603 24.9318 32.7037 24.6242C32.8429 24.3215 33.0439 24.0511 33.2937 23.8306C33.5435 23.6101 33.8367 23.4443 34.1544 23.3437C34.4721 23.2432 34.8073 23.2101 35.1385 23.2468C35.4697 23.2834 35.7896 23.3889 36.0777 23.5564" fill="#F28482"/>
<path d="M311.441 53.3333H324.476C324.837 53.3333 325.143 53.2293 325.393 53.0213C325.643 52.8133 325.823 52.5562 325.934 52.2499L328.435 42.2919H307.483L309.983 52.2499C310.095 52.5562 310.275 52.8133 310.525 53.0213C310.775 53.2293 311.08 53.3333 311.441 53.3333ZM311.441 55.4999C310.598 55.4999 309.853 55.2486 309.205 54.7459C308.558 54.2433 308.122 53.5875 307.897 52.7786L305.251 42.2919H330.666L328.021 52.7786C327.795 53.5586 327.359 54.2072 326.712 54.7243C326.065 55.2414 325.319 55.4999 324.474 55.4999H311.441ZM304.335 40.1253H331.667C332.112 40.1253 332.473 39.9866 332.751 39.7093C333.028 39.4319 333.167 39.0838 333.167 38.6649V34.9556H302.833V38.6649C302.833 39.0809 302.979 39.4276 303.271 39.7049C303.563 39.9837 303.917 40.1231 304.333 40.1231M317.959 27.5824C317.959 24.6372 319.077 22.1297 321.313 20.0598C323.549 17.9899 326.153 16.8163 329.126 16.5389C328.82 19.2617 327.735 21.6342 325.871 23.6564C324.008 25.6787 321.731 26.957 319.04 27.4914V32.7911H335.333V38.6671C335.333 39.6638 334.971 40.5174 334.248 41.2281C333.524 41.9388 332.664 42.2927 331.667 42.2898H304.333C303.336 42.2898 302.476 41.9359 301.752 41.2281C301.028 40.5203 300.667 39.6659 300.667 38.6649V32.7889H316.873V27.4914C314.187 26.957 311.911 25.6859 310.046 23.6781C308.181 21.6703 307.097 19.2921 306.792 16.5433C309.736 16.8206 312.333 18.0014 314.583 20.0858C316.834 22.1687 317.959 24.669 317.959 27.5868" fill="#F28482"/>
<path d="M243.188 26.8438H233.58C234.475 26.4482 235.307 25.9216 236.047 25.2813C236.56 24.8248 236.974 24.2672 237.261 23.6434C237.549 23.0196 237.705 22.3431 237.719 21.6563C237.741 20.8952 237.607 20.1376 237.326 19.4299C237.045 18.7223 236.622 18.0796 236.084 17.5412C235.545 17.0027 234.903 16.58 234.195 16.2989C233.487 16.0177 232.73 15.8842 231.969 15.9063C231.282 15.9202 230.605 16.0759 229.982 16.3636C229.358 16.6513 228.8 17.0648 228.344 17.5782C227.189 18.8809 226.463 20.5782 226 22.2051C225.541 20.5782 224.814 18.8848 223.656 17.5782C223.2 17.0648 222.642 16.6513 222.018 16.3636C221.395 16.0759 220.718 15.9202 220.031 15.9063C219.27 15.8842 218.513 16.0177 217.805 16.2989C217.097 16.58 216.455 17.0027 215.916 17.5412C215.378 18.0796 214.955 18.7223 214.674 19.4299C214.393 20.1376 214.259 20.8952 214.281 21.6563C214.295 22.3431 214.451 23.0196 214.739 23.6434C215.026 24.2672 215.44 24.8248 215.953 25.2813C216.693 25.9216 217.525 26.4482 218.42 26.8438H208.812C208.191 26.8438 207.595 27.0907 207.155 27.5303C206.716 27.9698 206.469 28.5659 206.469 29.1875V35.4375C206.469 36.0591 206.716 36.6553 207.155 37.0948C207.595 37.5344 208.191 37.7813 208.812 37.7813H209.594V51.0625C209.594 51.6841 209.841 52.2803 210.28 52.7198C210.72 53.1594 211.316 53.4063 211.938 53.4063H240.062C240.684 53.4063 241.28 53.1594 241.72 52.7198C242.159 52.2803 242.406 51.6841 242.406 51.0625V37.7813H243.188C243.809 37.7813 244.405 37.5344 244.845 37.0948C245.284 36.6553 245.531 36.0591 245.531 35.4375V29.1875C245.531 28.5659 245.284 27.9698 244.845 27.5303C244.405 27.0907 243.809 26.8438 243.188 26.8438ZM229.516 18.6133C229.831 18.2608 230.216 17.9772 230.646 17.7802C231.076 17.5833 231.543 17.4773 232.016 17.4688H232.135C232.673 17.4694 233.205 17.5777 233.701 17.7875C234.196 17.9973 234.645 18.3043 235.02 18.6902C235.394 19.0762 235.688 19.5334 235.883 20.0348C236.079 20.5362 236.171 21.0716 236.156 21.6094C236.148 22.0825 236.042 22.5487 235.845 22.9788C235.648 23.409 235.364 23.7939 235.012 24.1094C232.65 26.1993 228.553 26.6895 226.809 26.8028C226.93 25.0723 227.418 20.9844 229.516 18.6133ZM215.844 21.6094C215.829 21.0716 215.921 20.5362 216.117 20.0348C216.312 19.5334 216.606 19.0762 216.98 18.6902C217.355 18.3043 217.804 17.9973 218.299 17.7875C218.795 17.5777 219.327 17.4694 219.865 17.4688H219.984C220.457 17.4773 220.924 17.5833 221.354 17.7802C221.784 17.9772 222.169 18.2608 222.484 18.6133C224.576 20.9747 225.064 25.0723 225.178 26.8165C223.441 26.7032 219.344 26.2129 216.975 24.1231C216.623 23.8048 216.341 23.4172 216.146 22.9846C215.952 22.552 215.849 22.0838 215.844 21.6094ZM208.031 35.4375V29.1875C208.031 28.9803 208.114 28.7816 208.26 28.6351C208.407 28.4886 208.605 28.4063 208.812 28.4063H225.219V36.2188H208.812C208.605 36.2188 208.407 36.1365 208.26 35.99C208.114 35.8435 208.031 35.6447 208.031 35.4375ZM211.156 51.0625V37.7813H225.219V51.8438H211.938C211.73 51.8438 211.532 51.7615 211.385 51.615C211.239 51.4685 211.156 51.2697 211.156 51.0625ZM240.844 51.0625C240.844 51.2697 240.761 51.4685 240.615 51.615C240.468 51.7615 240.27 51.8438 240.062 51.8438H226.781V37.7813H240.844V51.0625ZM243.969 35.4375C243.969 35.6447 243.886 35.8435 243.74 35.99C243.593 36.1365 243.395 36.2188 243.188 36.2188H226.781V28.4063H243.188C243.395 28.4063 243.593 28.4886 243.74 28.6351C243.886 28.7816 243.969 28.9803 243.969 29.1875V35.4375Z" fill="#F28482"/>
<path d="M19.616 88.644C20.024 88.82 20.348 89.088 20.588 89.448C20.836 89.8 20.96 90.204 20.96 90.66C20.96 91.308 20.732 91.86 20.276 92.316C19.82 92.772 19.268 93 18.62 93H14.96V84.6H18.344C18.968 84.6 19.5 84.824 19.94 85.272C20.38 85.712 20.6 86.24 20.6 86.856C20.6 87.64 20.272 88.236 19.616 88.644ZM18.344 85.392H15.8V88.32H18.344C18.736 88.32 19.068 88.18 19.34 87.9C19.62 87.612 19.76 87.264 19.76 86.856C19.76 86.456 19.62 86.112 19.34 85.824C19.068 85.536 18.736 85.392 18.344 85.392ZM18.62 92.208C19.036 92.208 19.388 92.06 19.676 91.764C19.972 91.46 20.12 91.092 20.12 90.66C20.12 90.236 19.972 89.872 19.676 89.568C19.388 89.264 19.036 89.112 18.62 89.112H15.8V92.208H18.62ZM27.3094 92.244C26.7014 92.844 25.9574 93.144 25.0774 93.144C24.1974 93.144 23.4494 92.844 22.8334 92.244C22.2254 91.636 21.9214 90.888 21.9214 90C21.9214 89.112 22.2254 88.368 22.8334 87.768C23.4494 87.16 24.1974 86.856 25.0774 86.856C25.9574 86.856 26.7014 87.16 27.3094 87.768C27.9254 88.368 28.2334 89.112 28.2334 90C28.2334 90.888 27.9254 91.636 27.3094 92.244ZM23.3974 91.692C23.8534 92.148 24.4134 92.376 25.0774 92.376C25.7414 92.376 26.3014 92.148 26.7574 91.692C27.2134 91.228 27.4414 90.664 27.4414 90C27.4414 89.336 27.2134 88.776 26.7574 88.32C26.3014 87.856 25.7414 87.624 25.0774 87.624C24.4134 87.624 23.8534 87.856 23.3974 88.32C22.9414 88.776 22.7134 89.336 22.7134 90C22.7134 90.664 22.9414 91.228 23.3974 91.692ZM33.7828 87H34.5748V93H33.7828V92.064C33.3348 92.784 32.6628 93.144 31.7668 93.144C31.0388 93.144 30.4628 92.924 30.0388 92.484C29.6228 92.036 29.4148 91.436 29.4148 90.684V87H30.2068V90.684C30.2068 91.22 30.3468 91.636 30.6268 91.932C30.9148 92.228 31.3188 92.376 31.8388 92.376C32.4148 92.376 32.8828 92.196 33.2428 91.836C33.6028 91.468 33.7828 90.904 33.7828 90.144V87ZM41.4102 87H42.2022V95.4H41.4102V91.824C40.8582 92.704 40.0502 93.144 38.9862 93.144C38.1302 93.144 37.3982 92.84 36.7902 92.232C36.1902 91.624 35.8902 90.88 35.8902 90C35.8902 89.12 36.1902 88.376 36.7902 87.768C37.3982 87.16 38.1302 86.856 38.9862 86.856C40.0502 86.856 40.8582 87.296 41.4102 88.176V87ZM37.3662 91.692C37.8222 92.148 38.3822 92.376 39.0462 92.376C39.7102 92.376 40.2702 92.148 40.7262 91.692C41.1822 91.228 41.4102 90.664 41.4102 90C41.4102 89.336 41.1822 88.776 40.7262 88.32C40.2702 87.856 39.7102 87.624 39.0462 87.624C38.3822 87.624 37.8222 87.856 37.3662 88.32C36.9102 88.776 36.6822 89.336 36.6822 90C36.6822 90.664 36.9102 91.228 37.3662 91.692ZM48.1031 87H48.8951V93H48.1031V92.064C47.6551 92.784 46.9831 93.144 46.0871 93.144C45.3591 93.144 44.7831 92.924 44.3591 92.484C43.9431 92.036 43.7351 91.436 43.7351 90.684V87H44.5271V90.684C44.5271 91.22 44.6671 91.636 44.9471 91.932C45.2351 92.228 45.6391 92.376 46.1591 92.376C46.7351 92.376 47.2031 92.196 47.5631 91.836C47.9231 91.468 48.1031 90.904 48.1031 90.144V87ZM53.3425 86.856C54.2305 86.856 54.9465 87.172 55.4905 87.804C56.0425 88.428 56.3185 89.168 56.3185 90.024C56.3185 90.112 56.3105 90.236 56.2945 90.396H51.0265C51.1065 91.004 51.3625 91.488 51.7945 91.848C52.2345 92.2 52.7745 92.376 53.4145 92.376C53.8705 92.376 54.2625 92.284 54.5905 92.1C54.9265 91.908 55.1785 91.66 55.3465 91.356L56.0425 91.764C55.7785 92.188 55.4185 92.524 54.9625 92.772C54.5065 93.02 53.9865 93.144 53.4025 93.144C52.4585 93.144 51.6905 92.848 51.0985 92.256C50.5065 91.664 50.2105 90.912 50.2105 90C50.2105 89.104 50.5025 88.356 51.0865 87.756C51.6705 87.156 52.4225 86.856 53.3425 86.856ZM53.3425 87.624C52.7185 87.624 52.1945 87.812 51.7705 88.188C51.3545 88.556 51.1065 89.036 51.0265 89.628H55.5025C55.4225 88.996 55.1785 88.504 54.7705 88.152C54.3625 87.8 53.8865 87.624 53.3425 87.624ZM60.5825 87.768H58.8545V91.404C58.8545 91.732 58.9185 91.968 59.0465 92.112C59.1745 92.248 59.3665 92.32 59.6225 92.328C59.8785 92.328 60.1985 92.32 60.5825 92.304V93C59.7425 93.128 59.1105 93.068 58.6865 92.82C58.2705 92.572 58.0625 92.1 58.0625 91.404V87.768H56.8025V87H58.0625V85.56L58.8545 85.32V87H60.5825V87.768Z" fill="black"/>
<path d="M225.988 89.004V89.436C225.988 90.476 225.616 91.356 224.872 92.076C224.128 92.788 223.132 93.144 221.884 93.144C220.612 93.144 219.56 92.724 218.728 91.884C217.896 91.044 217.48 90.016 217.48 88.8C217.48 87.584 217.896 86.556 218.728 85.716C219.56 84.876 220.612 84.456 221.884 84.456C222.66 84.456 223.372 84.644 224.02 85.02C224.668 85.396 225.168 85.896 225.52 86.52L224.776 86.952C224.512 86.44 224.12 86.032 223.6 85.728C223.08 85.424 222.508 85.272 221.884 85.272C220.836 85.272 219.98 85.612 219.316 86.292C218.652 86.972 218.32 87.808 218.32 88.8C218.32 89.792 218.652 90.628 219.316 91.308C219.98 91.988 220.836 92.328 221.884 92.328C222.828 92.328 223.584 92.092 224.152 91.62C224.72 91.14 225.044 90.532 225.124 89.796H221.788V89.004H225.988ZM228.113 85.56C228.001 85.672 227.865 85.728 227.705 85.728C227.545 85.728 227.409 85.672 227.297 85.56C227.185 85.448 227.129 85.312 227.129 85.152C227.129 84.992 227.185 84.856 227.297 84.744C227.409 84.632 227.545 84.576 227.705 84.576C227.865 84.576 228.001 84.632 228.113 84.744C228.225 84.856 228.281 84.992 228.281 85.152C228.281 85.312 228.225 85.448 228.113 85.56ZM227.309 93V87H228.101V93H227.309ZM232.781 85.224C232.197 85.176 231.761 85.276 231.473 85.524C231.193 85.772 231.053 86.184 231.053 86.76V87H232.781V87.768H231.053V93H230.261V87.768H229.241V87H230.261V86.76C230.261 85.976 230.477 85.384 230.909 84.984C231.349 84.576 231.973 84.4 232.781 84.456V85.224ZM237.04 87.768H235.312V91.404C235.312 91.732 235.376 91.968 235.504 92.112C235.632 92.248 235.824 92.32 236.08 92.328C236.336 92.328 236.656 92.32 237.04 92.304V93C236.2 93.128 235.568 93.068 235.144 92.82C234.728 92.572 234.52 92.1 234.52 91.404V87.768H233.26V87H234.52V85.56L235.312 85.32V87H237.04V87.768Z" fill="black"/>
<path d="M310.96 84.6C311.712 84.6 312.34 84.852 312.844 85.356C313.348 85.86 313.6 86.488 313.6 87.24C313.6 87.992 313.348 88.62 312.844 89.124C312.34 89.628 311.712 89.88 310.96 89.88H308.8V93H307.96V84.6H310.96ZM310.96 89.088C311.48 89.088 311.908 88.916 312.244 88.572C312.588 88.22 312.76 87.776 312.76 87.24C312.76 86.704 312.588 86.264 312.244 85.92C311.908 85.568 311.48 85.392 310.96 85.392H308.8V89.088H310.96ZM319.466 92.244C318.858 92.844 318.114 93.144 317.234 93.144C316.354 93.144 315.606 92.844 314.99 92.244C314.382 91.636 314.078 90.888 314.078 90C314.078 89.112 314.382 88.368 314.99 87.768C315.606 87.16 316.354 86.856 317.234 86.856C318.114 86.856 318.858 87.16 319.466 87.768C320.082 88.368 320.39 89.112 320.39 90C320.39 90.888 320.082 91.636 319.466 92.244ZM315.554 91.692C316.01 92.148 316.57 92.376 317.234 92.376C317.898 92.376 318.458 92.148 318.914 91.692C319.37 91.228 319.598 90.664 319.598 90C319.598 89.336 319.37 88.776 318.914 88.32C318.458 87.856 317.898 87.624 317.234 87.624C316.57 87.624 316.01 87.856 315.554 88.32C315.098 88.776 314.87 89.336 314.87 90C314.87 90.664 315.098 91.228 315.554 91.692ZM324.778 87.768H323.05V91.404C323.05 91.732 323.114 91.968 323.242 92.112C323.37 92.248 323.562 92.32 323.818 92.328C324.074 92.328 324.394 92.32 324.778 92.304V93C323.938 93.128 323.306 93.068 322.882 92.82C322.466 92.572 322.258 92.1 322.258 91.404V87.768H320.998V87H322.258V85.56L323.05 85.32V87H324.778V87.768Z" fill="black"/>
<defs>
<clipPath id="clip0_99_55">
<rect width="50" height="50" fill="white" transform="translate(107 12)"/>
</clipPath>
</defs>
</svg>
