<svg width="50" height="71" viewBox="0 0 50 71" fill="none" xmlns="http://www.w3.org/2000/svg">
<path d="M42.1875 14.8438H32.5801C33.4753 14.4482 34.3067 13.9216 35.0469 13.2813C35.5602 12.8248 35.9737 12.2672 36.2614 11.6434C36.5491 11.0196 36.7048 10.3431 36.7188 9.65629C36.7409 8.89518 36.6073 8.13758 36.3262 7.42994C36.045 6.72231 35.6223 6.07957 35.0839 5.54116C34.5455 5.00274 33.9027 4.58001 33.1951 4.29888C32.4875 4.01775 31.7299 3.88416 30.9688 3.90629C30.2819 3.92024 29.6054 4.07594 28.9816 4.36364C28.3578 4.65134 27.8002 5.06483 27.3438 5.57817C26.1895 6.8809 25.4629 8.57817 25 10.2051C24.541 8.57817 23.8145 6.88481 22.6562 5.57817C22.1998 5.06483 21.6422 4.65134 21.0184 4.36364C20.3946 4.07594 19.7181 3.92024 19.0312 3.90629C18.2701 3.88416 17.5125 4.01775 16.8049 4.29888C16.0973 4.58001 15.4545 5.00274 14.9161 5.54116C14.3777 6.07957 13.955 6.72231 13.6738 7.42994C13.3927 8.13758 13.2591 8.89518 13.2812 9.65629C13.2952 10.3431 13.4509 11.0196 13.7386 11.6434C14.0263 12.2672 14.4398 12.8248 14.9531 13.2813C15.6933 13.9216 16.5247 14.4482 17.4199 14.8438H7.8125C7.1909 14.8438 6.59476 15.0907 6.15522 15.5303C5.71568 15.9698 5.46875 16.5659 5.46875 17.1875V23.4375C5.46875 24.0591 5.71568 24.6553 6.15522 25.0948C6.59476 25.5344 7.1909 25.7813 7.8125 25.7813H8.59375V39.0625C8.59375 39.6841 8.84068 40.2803 9.28022 40.7198C9.71976 41.1594 10.3159 41.4063 10.9375 41.4063H39.0625C39.6841 41.4063 40.2802 41.1594 40.7198 40.7198C41.1593 40.2803 41.4062 39.6841 41.4062 39.0625V25.7813H42.1875C42.8091 25.7813 43.4052 25.5344 43.8448 25.0948C44.2843 24.6553 44.5312 24.0591 44.5312 23.4375V17.1875C44.5312 16.5659 44.2843 15.9698 43.8448 15.5303C43.4052 15.0907 42.8091 14.8438 42.1875 14.8438ZM28.5156 6.61333C28.8311 6.26078 29.216 5.97716 29.6462 5.78022C30.0764 5.58328 30.5426 5.47726 31.0156 5.46879H31.1348C31.6728 5.46936 32.2053 5.57774 32.7008 5.78753C33.1962 5.99732 33.6447 6.30427 34.0195 6.69024C34.3944 7.07621 34.6881 7.53339 34.8834 8.03477C35.0786 8.53616 35.1714 9.07158 35.1562 9.60942C35.1478 10.0825 35.0418 10.5487 34.8448 10.9788C34.6479 11.409 34.3643 11.7939 34.0117 12.1094C31.6504 14.1993 27.5527 14.6895 25.8086 14.8028C25.9297 13.0723 26.418 8.98442 28.5156 6.61333ZM14.8438 9.60942C14.8286 9.07158 14.9214 8.53616 15.1166 8.03477C15.3119 7.53339 15.6056 7.07621 15.9805 6.69024C16.3553 6.30427 16.8038 5.99732 17.2992 5.78753C17.7947 5.57774 18.3272 5.46936 18.8652 5.46879H18.9844C19.4574 5.47726 19.9236 5.58328 20.3538 5.78022C20.784 5.97716 21.1689 6.26078 21.4844 6.61333C23.5762 8.97465 24.0645 13.0723 24.1777 14.8165C22.4414 14.7032 18.3438 14.2129 15.9746 12.1231C15.6229 11.8048 15.3408 11.4172 15.1462 10.9846C14.9516 10.552 14.8486 10.0838 14.8438 9.60942ZM7.03125 23.4375V17.1875C7.03125 16.9803 7.11356 16.7816 7.26007 16.6351C7.40659 16.4886 7.6053 16.4063 7.8125 16.4063H24.2188V24.2188H7.8125C7.6053 24.2188 7.40659 24.1365 7.26007 23.99C7.11356 23.8435 7.03125 23.6447 7.03125 23.4375ZM10.1562 39.0625V25.7813H24.2188V39.8438H10.9375C10.7303 39.8438 10.5316 39.7615 10.3851 39.615C10.2386 39.4685 10.1562 39.2697 10.1562 39.0625ZM39.8438 39.0625C39.8438 39.2697 39.7614 39.4685 39.6149 39.615C39.4684 39.7615 39.2697 39.8438 39.0625 39.8438H25.7812V25.7813H39.8438V39.0625ZM42.9688 23.4375C42.9688 23.6447 42.8864 23.8435 42.7399 23.99C42.5934 24.1365 42.3947 24.2188 42.1875 24.2188H25.7812V16.4063H42.1875C42.3947 16.4063 42.5934 16.4886 42.7399 16.6351C42.8864 16.7816 42.9688 16.9803 42.9688 17.1875V23.4375Z" fill="#F5CAC4"/>
<path d="M23.7282 63.004V63.436C23.7282 64.476 23.3562 65.356 22.6122 66.076C21.8682 66.788 20.8722 67.144 19.6242 67.144C18.3522 67.144 17.3002 66.724 16.4682 65.884C15.6362 65.044 15.2202 64.016 15.2202 62.8C15.2202 61.584 15.6362 60.556 16.4682 59.716C17.3002 58.876 18.3522 58.456 19.6242 58.456C20.4002 58.456 21.1122 58.644 21.7602 59.02C22.4082 59.396 22.9082 59.896 23.2602 60.52L22.5162 60.952C22.2522 60.44 21.8602 60.032 21.3402 59.728C20.8202 59.424 20.2482 59.272 19.6242 59.272C18.5762 59.272 17.7202 59.612 17.0562 60.292C16.3922 60.972 16.0602 61.808 16.0602 62.8C16.0602 63.792 16.3922 64.628 17.0562 65.308C17.7202 65.988 18.5762 66.328 19.6242 66.328C20.5682 66.328 21.3242 66.092 21.8922 65.62C22.4602 65.14 22.7842 64.532 22.8642 63.796H19.5282V63.004H23.7282ZM25.853 59.56C25.741 59.672 25.605 59.728 25.445 59.728C25.285 59.728 25.149 59.672 25.037 59.56C24.925 59.448 24.869 59.312 24.869 59.152C24.869 58.992 24.925 58.856 25.037 58.744C25.149 58.632 25.285 58.576 25.445 58.576C25.605 58.576 25.741 58.632 25.853 58.744C25.965 58.856 26.021 58.992 26.021 59.152C26.021 59.312 25.965 59.448 25.853 59.56ZM25.049 67V61H25.841V67H25.049ZM30.5216 59.224C29.9376 59.176 29.5016 59.276 29.2136 59.524C28.9336 59.772 28.7936 60.184 28.7936 60.76V61H30.5216V61.768H28.7936V67H28.0016V61.768H26.9816V61H28.0016V60.76C28.0016 59.976 28.2176 59.384 28.6496 58.984C29.0896 58.576 29.7136 58.4 30.5216 58.456V59.224ZM34.7798 61.768H33.0518V65.404C33.0518 65.732 33.1158 65.968 33.2438 66.112C33.3718 66.248 33.5638 66.32 33.8198 66.328C34.0758 66.328 34.3958 66.32 34.7798 66.304V67C33.9398 67.128 33.3078 67.068 32.8838 66.82C32.4678 66.572 32.2598 66.1 32.2598 65.404V61.768H30.9998V61H32.2598V59.56L33.0518 59.32V61H34.7798V61.768Z" fill="#F5CAC4"/>
</svg>
