<svg width="24" height="24" viewBox="0 0 24 24" fill="none" xmlns="http://www.w3.org/2000/svg">
<g clip-path="url(#clip0_11_301)">
<path fill-rule="evenodd" clip-rule="evenodd" d="M8.26629 1.90628C8.99463 1.17815 9.92002 0.67892 10.9285 0.470065C11.937 0.261211 12.9845 0.351847 13.9422 0.730815C14.8998 1.10978 15.7257 1.76053 16.3181 2.60294C16.9106 3.44535 17.2437 4.44263 17.2766 5.47199C18.5857 5.09467 19.99 5.23969 21.1944 5.87655C22.3987 6.51341 23.3092 7.59249 23.7343 8.88685C24.1551 10.1772 24.0577 11.5822 23.4627 12.8021C22.8676 14.0219 21.8216 14.9625 20.5457 15.4251C21.3021 16.5501 21.5904 17.9255 21.3494 19.2595C21.1084 20.5935 20.3571 21.7811 19.2549 22.5703C18.1506 23.3677 16.7816 23.7092 15.4322 23.5237C14.0828 23.3383 12.8567 22.6401 12.0086 21.5743C11.4804 22.2387 10.8003 22.7666 10.0255 23.1133C9.25078 23.46 8.40405 23.6155 7.55665 23.5666C6.70925 23.5177 5.88601 23.2658 5.15627 22.8323C4.42653 22.3988 3.81165 21.7962 3.36343 21.0754C2.8361 20.2238 2.56535 19.2383 2.58359 18.2368C2.60183 17.2354 2.90829 16.2604 3.46629 15.4286C2.19351 14.9577 1.15254 14.0122 0.561786 12.7905C-0.0289683 11.5688 -0.123596 10.1657 0.297758 8.87569C0.719111 7.58568 1.6237 6.50899 2.82173 5.87152C4.01976 5.23404 5.41812 5.08532 6.72343 5.45656C6.77014 4.12109 7.32149 2.85299 8.26629 1.90799V1.90628ZM15.78 12.4457C15.78 14.52 14.088 16.2 12 16.2C11.0012 16.2023 10.0423 15.8083 9.33371 15.1045C8.62506 14.4006 8.22454 13.4445 8.22 12.4457C8.22 10.3714 9.912 8.69142 12 8.69142C14.088 8.69142 15.78 10.3714 15.78 12.4457Z" fill="white"/>
</g>
<defs>
<clipPath id="clip0_11_301">
<rect width="24" height="24" fill="white"/>
</clipPath>
</defs>
</svg>
