<svg width="58" height="58" viewBox="0 0 58 58" fill="none" xmlns="http://www.w3.org/2000/svg">
<g clip-path="url(#clip0_12_406)">
<path d="M25.3726 6.28579C26.3175 5.55596 27.5983 4.83337 29 4.83337C30.4017 4.83337 31.6825 5.55596 32.6274 6.28579C33.6521 7.07604 34.6477 8.15387 35.5202 9.41537C35.9648 10.0582 36.3805 10.759 36.7672 11.5179C38.974 10.3769 41.4023 9.72883 43.8842 9.61837C46.6102 9.49029 48.3333 11.7837 48.3333 14.0119V19.3334C48.3338 24.0427 46.6153 28.5902 43.5006 32.1223C40.3858 35.6544 36.089 37.9282 31.4167 38.5169V45.936C34.017 44.3193 37.8498 42.4222 42.9152 41.1559C43.225 41.0727 43.5484 41.0521 43.8663 41.0953C44.1843 41.1384 44.4904 41.2444 44.7669 41.4071C45.0435 41.5698 45.2848 41.786 45.4769 42.043C45.6691 42.2999 45.8081 42.5926 45.8859 42.9039C45.9637 43.2151 45.9788 43.5388 45.9302 43.8559C45.8816 44.1731 45.7704 44.4774 45.6029 44.7511C45.4355 45.0248 45.2152 45.2624 44.955 45.4501C44.6948 45.6377 44.3998 45.7717 44.0872 45.8442C36.3104 47.7896 31.9169 51.3784 30.9164 52.2677C30.3533 52.7704 29.7951 53.1667 29 53.1667C28.2146 53.1667 27.6563 52.78 27.0981 52.2798C26.129 51.4146 21.7331 47.7993 13.9127 45.8442C13.6029 45.7689 13.3111 45.6331 13.054 45.4446C12.7969 45.256 12.5797 45.0185 12.4148 44.7456C12.2499 44.4727 12.1407 44.1699 12.0934 43.8546C12.046 43.5394 12.0615 43.2178 12.139 42.9086C12.2165 42.5993 12.3544 42.3085 12.5448 42.0527C12.7352 41.797 12.9743 41.5815 13.2483 41.4185C13.5223 41.2556 13.8259 41.1485 14.1415 41.1035C14.4571 41.0584 14.7785 41.0762 15.0872 41.1559C20.1502 42.4222 23.9806 44.3217 26.5833 45.936V38.5169C21.911 37.9282 17.6141 35.6544 14.4994 32.1223C11.3847 28.5902 9.66622 24.0427 9.66666 19.3334V13.978C9.66666 11.7813 11.339 9.50721 14.0336 9.57971C15.8074 9.62804 18.5141 9.98571 21.2836 11.4236C21.6509 10.7035 22.0569 10.0292 22.4798 9.41779C23.3498 8.15387 24.3479 7.07362 25.3726 6.28579Z" fill="#F28482"/>
</g>
<defs>
<clipPath id="clip0_12_406">
<rect width="58" height="58" fill="white"/>
</clipPath>
</defs>
</svg>
