<svg width="73" height="87" viewBox="0 0 73 87" fill="none" xmlns="http://www.w3.org/2000/svg">
<g clip-path="url(#clip0_19_650)">
<path d="M33.3726 6.28579C34.3175 5.55596 35.5984 4.83337 37 4.83337C38.4017 4.83337 39.6825 5.55596 40.6274 6.28579C41.6521 7.07604 42.6478 8.15387 43.5202 9.41537C43.9649 10.0582 44.3805 10.759 44.7672 11.5179C46.9741 10.3769 49.4024 9.72883 51.8843 9.61837C54.6103 9.49029 56.3334 11.7837 56.3334 14.0119V19.3334C56.3338 24.0427 54.6154 28.5902 51.5006 32.1223C48.3859 35.6544 44.089 37.9282 39.4167 38.5169V45.936C42.017 44.3193 45.8499 42.4222 50.9152 41.1559C51.2251 41.0727 51.5484 41.0521 51.8664 41.0953C52.1843 41.1384 52.4904 41.2444 52.767 41.4071C53.0435 41.5698 53.2849 41.786 53.477 42.043C53.6691 42.2999 53.8081 42.5926 53.8859 42.9039C53.9637 43.2151 53.9788 43.5388 53.9302 43.8559C53.8816 44.1731 53.7704 44.4774 53.603 44.7511C53.4355 45.0248 53.2153 45.2624 52.9551 45.4501C52.6948 45.6377 52.3998 45.7717 52.0873 45.8442C44.3104 47.7896 39.9169 51.3784 38.9164 52.2677C38.3534 52.7704 37.7951 53.1667 37 53.1667C36.2146 53.1667 35.6564 52.78 35.0981 52.2798C34.129 51.4146 29.7331 47.7993 21.9128 45.8442C21.603 45.7689 21.3111 45.6331 21.054 45.4446C20.797 45.256 20.5797 45.0185 20.4149 44.7456C20.25 44.4727 20.1407 44.1699 20.0934 43.8546C20.0461 43.5394 20.0616 43.2178 20.1391 42.9086C20.2165 42.5993 20.3544 42.3085 20.5448 42.0527C20.7352 41.797 20.9743 41.5815 21.2483 41.4185C21.5224 41.2556 21.8259 41.1485 22.1416 41.1035C22.4572 41.0584 22.7786 41.0762 23.0873 41.1559C28.1502 42.4222 31.9806 44.3217 34.5834 45.936V38.5169C29.911 37.9282 25.6142 35.6544 22.4994 32.1223C19.3847 28.5902 17.6662 24.0427 17.6667 19.3334V13.978C17.6667 11.7813 19.339 9.50721 22.0336 9.57971C23.8074 9.62804 26.5141 9.98571 29.2836 11.4236C29.6509 10.7035 30.0569 10.0292 30.4799 9.41779C31.3499 8.15387 32.3479 7.07362 33.3726 6.28579Z" fill="white"/>
</g>
<path d="M5.28409 81L0.511364 63.5455H2.65909L6.30682 77.7614H6.47727L10.1932 63.5455H12.5795L16.2955 77.7614H16.4659L20.1136 63.5455H22.2614L17.4886 81H15.3068L11.4545 67.0909H11.3182L7.46591 81H5.28409ZM27.2557 81.3068C26.4261 81.3068 25.6733 81.1506 24.9972 80.8381C24.321 80.5199 23.7841 80.0625 23.3864 79.4659C22.9886 78.8636 22.7898 78.1364 22.7898 77.2841C22.7898 76.5341 22.9375 75.9261 23.233 75.4602C23.5284 74.9886 23.9233 74.6193 24.4176 74.3523C24.9119 74.0852 25.4574 73.8864 26.054 73.7557C26.6563 73.6193 27.2614 73.5114 27.8693 73.4318C28.6648 73.3295 29.3097 73.2528 29.804 73.2017C30.304 73.1449 30.6676 73.0511 30.8949 72.9205C31.1278 72.7898 31.2443 72.5625 31.2443 72.2386V72.1705C31.2443 71.3295 31.0142 70.6761 30.554 70.2102C30.0994 69.7443 29.4091 69.5114 28.483 69.5114C27.5227 69.5114 26.7699 69.7216 26.2244 70.142C25.679 70.5625 25.2955 71.0114 25.0739 71.4886L23.1648 70.8068C23.5057 70.0114 23.9602 69.392 24.5284 68.9489C25.1023 68.5 25.7273 68.1875 26.4034 68.0114C27.0852 67.8295 27.7557 67.7386 28.4148 67.7386C28.8352 67.7386 29.3182 67.7898 29.8636 67.892C30.4148 67.9886 30.946 68.1903 31.4574 68.4972C31.9744 68.804 32.4034 69.267 32.7443 69.8864C33.0852 70.5057 33.2557 71.3352 33.2557 72.375V81H31.2443V79.2273H31.142C31.0057 79.5114 30.7784 79.8153 30.4602 80.1392C30.142 80.4631 29.7188 80.7386 29.1903 80.9659C28.6619 81.1932 28.017 81.3068 27.2557 81.3068ZM27.5625 79.5C28.358 79.5 29.0284 79.3438 29.5739 79.0312C30.125 78.7188 30.5398 78.3153 30.8182 77.821C31.1023 77.3267 31.2443 76.8068 31.2443 76.2614V74.4205C31.1591 74.5227 30.9716 74.6165 30.6818 74.7017C30.3977 74.7812 30.0682 74.8523 29.6932 74.9148C29.3239 74.9716 28.9631 75.0227 28.6108 75.0682C28.2642 75.108 27.983 75.142 27.767 75.1705C27.2443 75.2386 26.7557 75.3494 26.3011 75.5028C25.8523 75.6506 25.4886 75.875 25.2102 76.1761C24.9375 76.4716 24.8011 76.875 24.8011 77.3864C24.8011 78.0852 25.0597 78.6136 25.5767 78.9716C26.0994 79.3239 26.7614 79.5 27.5625 79.5ZM36.9268 81V67.9091H38.87V69.8864H39.0064C39.245 69.2386 39.6768 68.7131 40.3018 68.3097C40.9268 67.9062 41.6314 67.7045 42.4155 67.7045C42.5632 67.7045 42.7479 67.7074 42.9695 67.7131C43.1911 67.7187 43.3587 67.7273 43.4723 67.7386V69.7841C43.4041 69.767 43.2479 69.7415 43.0036 69.7074C42.7649 69.6676 42.5121 69.6477 42.245 69.6477C41.6087 69.6477 41.0405 69.7812 40.5405 70.0483C40.0462 70.3097 39.6541 70.6733 39.3643 71.1392C39.0803 71.5994 38.9382 72.125 38.9382 72.7159V81H36.9268ZM50.4013 81.2727C49.3104 81.2727 48.3473 80.9972 47.5121 80.446C46.6768 79.8892 46.0234 79.1051 45.5518 78.0938C45.0803 77.0767 44.8445 75.875 44.8445 74.4886C44.8445 73.1136 45.0803 71.9205 45.5518 70.9091C46.0234 69.8977 46.6797 69.1165 47.5206 68.5653C48.3615 68.0142 49.3331 67.7386 50.4354 67.7386C51.2876 67.7386 51.9609 67.8807 52.4553 68.1648C52.9553 68.4432 53.3359 68.7614 53.5973 69.1193C53.8643 69.4716 54.0717 69.7614 54.2195 69.9886H54.3899V63.5455H56.4013V81H54.4581V78.9886H54.2195C54.0717 79.2273 53.8615 79.5284 53.5888 79.892C53.3161 80.25 52.9268 80.571 52.4212 80.8551C51.9155 81.1335 51.2422 81.2727 50.4013 81.2727ZM50.674 79.4659C51.4808 79.4659 52.1626 79.2557 52.7195 78.8352C53.2763 78.4091 53.6996 77.821 53.9893 77.071C54.2791 76.3153 54.424 75.4432 54.424 74.4545C54.424 73.4773 54.282 72.6222 53.9979 71.8892C53.7138 71.1506 53.2933 70.5767 52.7365 70.1676C52.1797 69.7528 51.4922 69.5455 50.674 69.5455C49.8217 69.5455 49.1115 69.7642 48.5433 70.2017C47.9808 70.6335 47.5575 71.2216 47.2734 71.9659C46.995 72.7045 46.8558 73.5341 46.8558 74.4545C46.8558 75.3864 46.9979 76.233 47.282 76.9943C47.5717 77.75 47.9979 78.3523 48.5604 78.8011C49.1286 79.2443 49.8331 79.4659 50.674 79.4659ZM64.2166 81.3068C63.3871 81.3068 62.6342 81.1506 61.9581 80.8381C61.282 80.5199 60.745 80.0625 60.3473 79.4659C59.9496 78.8636 59.7507 78.1364 59.7507 77.2841C59.7507 76.5341 59.8984 75.9261 60.1939 75.4602C60.4893 74.9886 60.8842 74.6193 61.3786 74.3523C61.8729 74.0852 62.4183 73.8864 63.0149 73.7557C63.6172 73.6193 64.2223 73.5114 64.8303 73.4318C65.6257 73.3295 66.2706 73.2528 66.7649 73.2017C67.2649 73.1449 67.6286 73.0511 67.8558 72.9205C68.0888 72.7898 68.2053 72.5625 68.2053 72.2386V72.1705C68.2053 71.3295 67.9751 70.6761 67.5149 70.2102C67.0604 69.7443 66.37 69.5114 65.4439 69.5114C64.4837 69.5114 63.7308 69.7216 63.1854 70.142C62.6399 70.5625 62.2564 71.0114 62.0348 71.4886L60.1257 70.8068C60.4666 70.0114 60.9212 69.392 61.4893 68.9489C62.0632 68.5 62.6882 68.1875 63.3643 68.0114C64.0462 67.8295 64.7166 67.7386 65.3757 67.7386C65.7962 67.7386 66.2791 67.7898 66.8246 67.892C67.3757 67.9886 67.907 68.1903 68.4183 68.4972C68.9354 68.804 69.3643 69.267 69.7053 69.8864C70.0462 70.5057 70.2166 71.3352 70.2166 72.375V81H68.2053V79.2273H68.103C67.9666 79.5114 67.7393 79.8153 67.4212 80.1392C67.103 80.4631 66.6797 80.7386 66.1513 80.9659C65.6229 81.1932 64.978 81.3068 64.2166 81.3068ZM64.5234 79.5C65.3189 79.5 65.9893 79.3438 66.5348 79.0312C67.0859 78.7188 67.5007 78.3153 67.7791 77.821C68.0632 77.3267 68.2053 76.8068 68.2053 76.2614V74.4205C68.12 74.5227 67.9325 74.6165 67.6428 74.7017C67.3587 74.7812 67.0291 74.8523 66.6541 74.9148C66.2848 74.9716 65.924 75.0227 65.5717 75.0682C65.2251 75.108 64.9439 75.142 64.728 75.1705C64.2053 75.2386 63.7166 75.3494 63.2621 75.5028C62.8132 75.6506 62.4496 75.875 62.1712 76.1761C61.8984 76.4716 61.7621 76.875 61.7621 77.3864C61.7621 78.0852 62.0206 78.6136 62.5376 78.9716C63.0604 79.3239 63.7223 79.5 64.5234 79.5Z" fill="white"/>
<defs>
<clipPath id="clip0_19_650">
<rect width="58" height="58" fill="white" transform="translate(8)"/>
</clipPath>
</defs>
</svg>
