<svg width="52" height="73" viewBox="0 0 52 73" fill="none" xmlns="http://www.w3.org/2000/svg">
<path d="M19.4415 43.3333H32.4762C32.8373 43.3333 33.1428 43.2293 33.3927 43.0213C33.6426 42.8133 33.8231 42.5562 33.9344 42.2499L36.4347 32.2919H15.483L17.9834 42.2499C18.0946 42.5562 18.2751 42.8133 18.525 43.0213C18.7749 43.2293 19.0804 43.3333 19.4415 43.3333ZM19.4415 45.4999C18.598 45.4999 17.8526 45.2486 17.2055 44.7459C16.5584 44.2433 16.1222 43.5875 15.8969 42.7786L13.2514 32.2919H38.6664L36.0209 42.7786C35.7955 43.5586 35.3593 44.2072 34.7122 44.7243C34.0651 45.2414 33.319 45.4999 32.474 45.4999H19.4415ZM12.3349 30.1253H39.6674C40.1122 30.1253 40.4734 29.9866 40.7507 29.7093C41.028 29.4319 41.1667 29.0838 41.1667 28.6649V24.9556H10.8334V28.6649C10.8334 29.0809 10.9792 29.4276 11.271 29.7049C11.5628 29.9837 11.9167 30.1231 12.3327 30.1231M25.9589 17.5824C25.9589 14.6372 27.0769 12.1297 29.3129 10.0598C31.5489 7.98989 34.1532 6.81627 37.1259 6.53894C36.8196 9.26172 35.7349 11.6342 33.8715 13.6564C32.0082 15.6787 29.731 16.957 27.04 17.4914V22.7911H43.3334V28.6671C43.3334 29.6638 42.9715 30.5174 42.2479 31.2281C41.5242 31.9388 40.664 32.2927 39.6674 32.2898H12.3327C11.336 32.2898 10.4759 31.9359 9.75219 31.2281C9.02852 30.5203 8.66669 29.6659 8.66669 28.6649V22.7889H24.8734V17.4914C22.1867 16.957 19.911 15.6859 18.0462 13.6781C16.1814 11.6703 15.0966 9.29205 14.7919 6.54327C17.7356 6.82061 20.3327 8.00144 22.5832 10.0858C24.8336 12.1687 25.9589 14.669 25.9589 17.5868" fill="#F5CAC4"/>
<path d="M20.8311 60.6C21.5831 60.6 22.2111 60.852 22.7151 61.356C23.2191 61.86 23.4711 62.488 23.4711 63.24C23.4711 63.992 23.2191 64.62 22.7151 65.124C22.2111 65.628 21.5831 65.88 20.8311 65.88H18.6711V69H17.8311V60.6H20.8311ZM20.8311 65.088C21.3511 65.088 21.7791 64.916 22.1151 64.572C22.4591 64.22 22.6311 63.776 22.6311 63.24C22.6311 62.704 22.4591 62.264 22.1151 61.92C21.7791 61.568 21.3511 61.392 20.8311 61.392H18.6711V65.088H20.8311ZM29.3368 68.244C28.7288 68.844 27.9848 69.144 27.1048 69.144C26.2248 69.144 25.4768 68.844 24.8608 68.244C24.2528 67.636 23.9488 66.888 23.9488 66C23.9488 65.112 24.2528 64.368 24.8608 63.768C25.4768 63.16 26.2248 62.856 27.1048 62.856C27.9848 62.856 28.7288 63.16 29.3368 63.768C29.9528 64.368 30.2608 65.112 30.2608 66C30.2608 66.888 29.9528 67.636 29.3368 68.244ZM25.4248 67.692C25.8808 68.148 26.4408 68.376 27.1048 68.376C27.7688 68.376 28.3288 68.148 28.7848 67.692C29.2408 67.228 29.4688 66.664 29.4688 66C29.4688 65.336 29.2408 64.776 28.7848 64.32C28.3288 63.856 27.7688 63.624 27.1048 63.624C26.4408 63.624 25.8808 63.856 25.4248 64.32C24.9688 64.776 24.7408 65.336 24.7408 66C24.7408 66.664 24.9688 67.228 25.4248 67.692ZM34.6489 63.768H32.9209V67.404C32.9209 67.732 32.9849 67.968 33.1129 68.112C33.2409 68.248 33.4329 68.32 33.6889 68.328C33.9449 68.328 34.2649 68.32 34.6489 68.304V69C33.8089 69.128 33.1769 69.068 32.7529 68.82C32.3369 68.572 32.1289 68.1 32.1289 67.404V63.768H30.8689V63H32.1289V61.56L32.9209 61.32V63H34.6489V63.768Z" fill="#F5CAC4"/>
</svg>
