<svg width="24" height="25" viewBox="0 0 24 25" fill="none" xmlns="http://www.w3.org/2000/svg">
<g clip-path="url(#clip0_10_219)">
<path d="M4.48601 7.25331C4.4859 6.04592 4.82176 4.85909 5.4609 3.80836C6.10003 2.75763 7.02066 1.8788 8.13315 1.25746C9.24564 0.636117 10.5121 0.293426 11.8091 0.262755C13.1062 0.232084 14.3897 0.514477 15.5347 1.08244C16.6796 1.6504 17.647 2.48458 18.3427 3.50374C19.0384 4.52291 19.4386 5.69234 19.5043 6.89817C19.5701 8.104 19.2993 9.30513 18.7181 10.3846C18.1369 11.4641 17.2653 12.3852 16.188 13.0581C18.3897 13.8234 20.302 15.1725 21.6883 16.9385C23.0746 18.7046 23.8742 20.8101 23.988 22.9946C23.9972 23.1778 23.9674 23.3609 23.9005 23.5334C23.8335 23.7059 23.7307 23.8644 23.5979 23.9999C23.4651 24.1354 23.3049 24.2452 23.1265 24.3231C22.9481 24.401 22.7549 24.4453 22.558 24.4537H1.44201C1.04475 24.4363 0.67116 24.2729 0.403378 23.9993C0.135596 23.7256 -0.00445724 23.3643 0.0140098 22.9946C0.127454 20.8098 0.926811 18.7039 2.31316 16.9375C3.69952 15.171 5.61202 13.8216 7.81401 13.0562C6.78946 12.4181 5.94978 11.5547 5.3693 10.5425C4.78882 9.53032 4.48544 8.40059 4.48601 7.25331Z" fill="white"/>
</g>
<defs>
<clipPath id="clip0_10_219">
<rect width="24" height="24.8" fill="white"/>
</clipPath>
</defs>
</svg>
