<svg width="50" height="71" viewBox="0 0 50 71" fill="none" xmlns="http://www.w3.org/2000/svg">
<g clip-path="url(#clip0_97_51)">
<path d="M13.7207 0.201475C14.1973 0.477842 14.6494 0.844053 14.8096 1.388C14.8213 1.44562 14.8321 1.50323 14.8438 1.5628C14.8946 1.54718 14.9463 1.53155 14.9991 1.51593C15.8633 1.3294 16.8213 1.37433 17.5782 1.85577C18.0674 2.27374 18.4395 2.77667 18.5547 3.41827C18.5772 3.84308 18.5703 4.263 18.5547 4.6878C18.5547 4.81671 18.5547 4.94562 18.5547 5.07843C18.709 5.22979 18.709 5.22979 18.9151 5.35284C19.4844 5.75323 19.876 6.24054 20.0196 6.9339C20.0733 7.98956 20.0733 7.98956 19.9219 8.4964C20.0166 8.52569 20.1104 8.55499 20.208 8.58624C22.1153 9.19366 23.7998 10.1683 24.8037 11.9691C24.8526 12.0384 24.8526 12.0384 24.9024 12.1097C24.9668 12.1097 25.0313 12.1097 25.0977 12.1097C25.2227 11.9446 25.2227 11.9446 25.3477 11.7308C26.4844 9.98761 28.1094 9.04815 30.0781 8.4964C30.0547 8.41632 30.0547 8.41632 30.0313 8.33526C29.8526 7.52569 29.9326 6.75909 30.3711 6.05499C30.6992 5.59015 31.0557 5.27081 31.543 4.98077C31.5196 4.90069 31.5196 4.90069 31.4961 4.81964C31.291 3.8919 31.459 3.13312 31.958 2.34698C32.334 1.84308 32.7891 1.59991 33.3985 1.46515C33.9854 1.42023 34.5869 1.38995 35.1563 1.5628C35.166 1.50616 35.1768 1.44952 35.1865 1.3919C35.334 0.91046 35.7276 0.540342 36.1299 0.253233C36.8418 -0.118837 37.7012 -0.142275 38.4649 0.0833111C39.042 0.343077 39.5039 0.730772 39.8438 1.26983C39.8438 1.36651 39.8438 1.46319 39.8438 1.5628C39.8936 1.54718 39.9444 1.53155 39.9951 1.51593C40.833 1.33624 41.7266 1.36163 42.4717 1.80206C43.0283 2.21417 43.4229 2.7298 43.5547 3.41827C43.5772 3.84308 43.5703 4.263 43.5547 4.6878C43.5547 4.81671 43.5547 4.94562 43.5547 5.07843C43.709 5.22979 43.709 5.22979 43.9151 5.35284C44.4844 5.75323 44.876 6.24054 45.0196 6.9339C45.1074 7.75519 45.0264 8.40558 44.5313 9.08233C44.2549 9.36554 43.961 9.61554 43.6524 9.86358C43.5879 9.92804 43.5235 9.99249 43.4571 10.0589C43.4893 10.1556 43.5215 10.2523 43.5547 10.3519C43.6084 11.0521 43.5967 11.6771 43.2617 12.305C43.2295 12.3646 43.1973 12.4251 43.1641 12.4866C42.8252 13.0345 42.3125 13.3421 41.7051 13.5374C41.458 13.5823 41.2237 13.5872 40.9727 13.5862C40.8828 13.5872 40.792 13.5872 40.6983 13.5872C40.4365 13.5745 40.1963 13.5355 39.9414 13.4769C39.9072 13.5345 39.8731 13.5921 39.8369 13.6517C39.4444 14.2806 39.0733 14.6478 38.4092 14.972C37.4551 15.1702 36.6807 15.0667 35.8643 14.5374C35.4727 14.2425 35.2764 13.9046 35.0586 13.4769C34.9883 13.4925 34.918 13.5071 34.8457 13.5237C33.8662 13.7034 33.0918 13.5267 32.2451 13.0189C31.6709 12.4114 31.4307 11.7542 31.4336 10.9319C31.4326 10.8294 31.4326 10.7278 31.4326 10.6224C31.4453 10.3519 31.4453 10.3519 31.543 10.0589C29.461 10.5901 27.8985 11.2093 26.6739 13.0618C26.4639 13.4329 26.3389 13.8314 26.208 14.2347C26.1856 14.303 26.1631 14.3714 26.1397 14.4407C26.085 14.6077 26.0313 14.7747 25.9766 14.9417C26.0616 14.9407 26.1455 14.9398 26.2324 14.9388C27.0323 14.931 27.833 14.9251 28.6328 14.9212C29.044 14.9192 29.4551 14.9163 29.8672 14.9124C30.2647 14.9075 30.6621 14.9056 31.0596 14.9046C31.211 14.9036 31.3614 14.9026 31.5127 14.8997C32.5537 14.886 33.5371 14.9241 34.3692 15.6312C34.8194 16.1351 35.0645 16.8079 35.1074 17.4808C35.0694 18.1175 34.835 18.7444 34.4297 19.2327C34.3477 19.2991 34.2647 19.3655 34.1797 19.4339C34.1016 19.5042 34.0225 19.5745 33.9414 19.6468C33.4453 19.9983 32.9824 20.0433 32.3848 20.0316C32.2637 20.0296 32.1416 20.0286 32.0166 20.0267C31.9248 20.0237 31.833 20.0218 31.7383 20.0198C31.7422 20.5267 31.7491 21.0335 31.7588 21.5403C31.7617 21.7122 31.7637 21.8851 31.7647 22.0569C31.7764 23.4681 31.8672 24.7239 32.9102 25.7816C33.2481 26.0901 33.5987 26.3831 33.9492 26.6771C36.4063 28.7386 38.0176 31.973 38.3545 35.1507C38.6114 38.8382 37.7149 42.4808 35.2539 45.3128C35.1846 45.3939 35.1153 45.4749 35.044 45.5579C32.9199 47.9886 29.8096 49.723 26.5625 50.0003C22.6348 50.1937 19.2705 49.3401 16.211 46.7776C16.1416 46.72 16.0723 46.6624 16.001 46.6038C13.5117 44.4974 11.918 41.1761 11.6367 37.9466C11.4112 34.3421 12.3067 30.8314 14.7012 28.0472C15.3418 27.3235 15.9981 26.6751 16.7569 26.0775C17.5205 25.4319 17.9483 24.6009 18.1641 23.6331C18.1787 23.3558 18.1895 23.0814 18.1953 22.804C18.1983 22.6849 18.1983 22.6849 18.2012 22.5628C18.2071 22.3089 18.2129 22.056 18.2188 21.8021C18.2237 21.6292 18.2276 21.4573 18.2315 21.2845C18.2422 20.8636 18.252 20.4417 18.2617 20.0198C18.169 20.0218 18.0762 20.0237 17.9805 20.0257C17.7959 20.0276 17.7959 20.0276 17.6094 20.0296C17.4883 20.0316 17.3672 20.0335 17.2422 20.0355C16.6299 20.0071 16.2139 19.7913 15.7471 19.4095C15.1465 18.6751 14.8487 18.0599 14.9414 17.0901C15.0733 16.3987 15.3897 15.8929 15.918 15.43C16.5235 15.0384 17.0528 14.929 17.7705 14.93C17.8379 14.93 17.9063 14.93 17.9756 14.93C18.1992 14.93 18.4219 14.931 18.6446 14.9319C18.7998 14.9319 18.9541 14.9319 19.1094 14.9319C19.5166 14.9329 19.9239 14.9339 20.3311 14.9349C20.7461 14.9358 21.1621 14.9358 21.5781 14.9368C22.3926 14.9378 23.208 14.9398 24.0235 14.9417C23.9492 14.7093 23.875 14.4769 23.7998 14.2454C23.7696 14.1478 23.7696 14.1478 23.7373 14.0482C23.5371 13.4329 23.2383 12.9212 22.8516 12.4026C22.7998 12.3314 22.7471 12.2601 22.6934 12.1868C21.6582 10.8919 20.001 10.4358 18.4571 10.0589C18.4893 10.1556 18.5215 10.2523 18.5547 10.3519C18.6407 11.2816 18.4766 11.9788 17.9991 12.7747C17.417 13.3255 16.7666 13.5892 15.9727 13.5862C15.8828 13.5872 15.792 13.5872 15.6983 13.5872C15.4365 13.5745 15.1963 13.5355 14.9414 13.4769C14.8926 13.5589 14.8448 13.6419 14.7949 13.7269C14.3623 14.3694 13.7569 14.8812 12.9883 15.0394C12.2764 15.1331 11.6563 15.013 11.0352 14.6487C10.6182 14.303 10.2793 13.9124 9.96096 13.4769C9.90725 13.4925 9.85257 13.5071 9.7969 13.5237C8.85257 13.7347 8.05667 13.5062 7.24514 13.0189C6.67288 12.4144 6.43069 11.7581 6.43362 10.9378C6.43264 10.8372 6.43264 10.7366 6.43264 10.6321C6.44339 10.3909 6.47366 10.1907 6.543 9.96124C6.49221 9.92511 6.44143 9.88995 6.38968 9.85382C5.75393 9.39581 5.1719 8.90265 4.9805 8.10577C4.88186 7.24054 5.00393 6.57452 5.50686 5.86261C5.8096 5.48663 6.12893 5.22687 6.543 4.98077C6.52737 4.92706 6.51175 4.87433 6.49612 4.81964C6.29104 3.8919 6.45901 3.13312 6.95803 2.34698C7.33401 1.84308 7.78909 1.59991 8.39846 1.46515C8.98538 1.42023 9.58694 1.38995 10.1563 1.5628C10.1787 1.49444 10.2002 1.42608 10.2237 1.3548C10.5117 0.723936 10.9053 0.37628 11.5293 0.0901471C12.2598 -0.138369 13.0225 -0.114931 13.7207 0.201475ZM11.8321 2.06085C11.627 2.39679 11.5313 2.77374 11.4248 3.15069C11.3282 3.41925 11.2647 3.54522 11.0352 3.71124C10.5215 3.78155 10.2578 3.73565 9.82034 3.46124C9.41995 3.2171 9.1426 3.16339 8.68069 3.25226C8.47561 3.31476 8.47561 3.31476 8.28909 3.51593C8.16897 3.92608 8.18557 4.27569 8.30081 4.6878C8.36721 4.76788 8.43362 4.84894 8.50198 4.93194C8.74807 5.24835 8.7344 5.46124 8.73343 5.85089C8.67971 6.10968 8.6094 6.19073 8.39846 6.34796C8.17385 6.42999 8.17385 6.42999 7.9219 6.49444C7.40237 6.63995 7.04593 6.76495 6.73831 7.22687C6.73831 7.65948 6.78421 7.85187 7.07425 8.17901C7.40921 8.42706 7.77542 8.52081 8.17678 8.61554C8.42483 8.7005 8.53518 8.77569 8.69143 8.98468C8.77639 9.60382 8.63089 9.91534 8.31253 10.4388C8.16409 10.7181 8.15237 10.9202 8.20315 11.2308C8.29495 11.4788 8.34378 11.5931 8.58206 11.7161C9.11038 11.8411 9.41116 11.8167 9.88089 11.5374C9.96878 11.4817 9.96878 11.4817 10.0586 11.4261C10.4258 11.2181 10.6211 11.2142 11.0352 11.3284C11.3467 11.5628 11.4043 11.8274 11.5049 12.1946C11.6778 12.7347 11.8008 13.0091 12.3047 13.2816C12.6094 13.3216 12.6094 13.3216 12.8907 13.1839C13.3272 12.7874 13.4619 12.4105 13.5967 11.8431C13.6836 11.5872 13.7451 11.4837 13.9649 11.3284C14.3223 11.2171 14.4883 11.2034 14.833 11.3558C14.9278 11.4134 15.0215 11.471 15.1182 11.5296C15.6104 11.7933 15.8936 11.8704 16.4317 11.723C16.6563 11.5882 16.7119 11.4759 16.7969 11.2308C16.8213 10.7757 16.753 10.431 16.4981 10.053C16.2373 9.65851 16.2549 9.4505 16.3086 8.98468C16.5342 8.66827 16.8116 8.61358 17.1758 8.51397C17.7178 8.3421 17.9785 8.21124 18.2617 7.71515C18.3428 7.46612 18.3428 7.46612 18.2617 7.22687C17.9395 6.78937 17.6055 6.65948 17.1055 6.51202C16.8057 6.41729 16.5323 6.27862 16.3086 6.05499C16.2539 5.62237 16.2256 5.28351 16.4981 4.93194C16.5645 4.85089 16.6309 4.77081 16.6992 4.6878C16.8145 4.27569 16.8311 3.92608 16.711 3.51593C16.4356 3.25616 16.2207 3.23077 15.8487 3.20831C15.4063 3.23663 15.1045 3.47198 14.7461 3.71124C14.5567 3.74054 14.5567 3.74054 14.3555 3.74151C14.2891 3.74347 14.2227 3.74444 14.1543 3.7464C13.8994 3.69855 13.8262 3.62628 13.6719 3.41827C13.5752 3.15069 13.5752 3.15069 13.4883 2.84405C13.3311 2.35187 13.2276 2.04718 12.793 1.75812C12.376 1.6712 12.1221 1.73858 11.8321 2.06085ZM36.8321 2.06085C36.627 2.39679 36.5313 2.77374 36.4248 3.15069C36.3282 3.41925 36.2656 3.5462 36.0352 3.71124C35.4063 3.78351 35.1934 3.67413 34.668 3.32062C34.2949 3.22687 33.9483 3.1673 33.5791 3.29522C33.3565 3.44659 33.2901 3.55499 33.2031 3.8089C33.1797 4.24444 33.2217 4.5921 33.502 4.93194C33.7481 5.24835 33.7344 5.46124 33.7334 5.85089C33.6797 6.10968 33.6094 6.19073 33.3985 6.34796C33.1699 6.4339 33.1699 6.4339 32.916 6.5003C32.5098 6.6087 32.166 6.71026 31.8545 7.0003C31.6817 7.33722 31.7393 7.55108 31.836 7.91046C32.1221 8.26593 32.3858 8.37823 32.8184 8.50226C33.4805 8.69269 33.4805 8.69269 33.6914 8.98468C33.7764 9.60382 33.6309 9.91534 33.3125 10.4388C33.1641 10.7181 33.1524 10.9202 33.2031 11.2308C33.2949 11.4788 33.3438 11.5931 33.5821 11.7161C34.1104 11.8411 34.4112 11.8167 34.8809 11.5374C34.9688 11.4817 34.9688 11.4817 35.0586 11.4261C35.4258 11.2181 35.6211 11.2142 36.0352 11.3284C36.3467 11.5628 36.4043 11.8274 36.5049 12.1946C36.6778 12.7347 36.8008 13.0091 37.3047 13.2816C37.6094 13.3216 37.6094 13.3216 37.8906 13.1839C38.3272 12.7874 38.4619 12.4105 38.5967 11.8431C38.6836 11.5872 38.7451 11.4837 38.9649 11.3284C39.3223 11.2171 39.4883 11.2034 39.833 11.3558C39.9278 11.4134 40.0215 11.471 40.1182 11.5296C40.6104 11.7933 40.8936 11.8704 41.4317 11.723C41.6563 11.5882 41.7119 11.4759 41.7969 11.2308C41.8213 10.7757 41.753 10.431 41.4981 10.053C41.2373 9.65851 41.2549 9.4505 41.3086 8.98468C41.5205 8.69854 41.7324 8.63702 42.0713 8.55694C42.5537 8.42022 42.8301 8.28741 43.1641 7.91046C43.3018 7.57452 43.3018 7.57452 43.2617 7.22687C42.9571 6.7796 42.6016 6.65851 42.1055 6.51202C41.8057 6.41729 41.5322 6.27862 41.3086 6.05499C41.2539 5.62237 41.2256 5.28351 41.4981 4.93194C41.5645 4.85089 41.6309 4.77081 41.6992 4.6878C41.8145 4.27569 41.8311 3.92608 41.711 3.51593C41.4385 3.25812 41.2354 3.21905 40.8653 3.19464C40.5069 3.23663 40.2627 3.40851 39.9619 3.59796C39.6074 3.78448 39.3584 3.76495 38.9649 3.71124C38.6504 3.4837 38.5908 3.20733 38.4883 2.84405C38.3311 2.35187 38.2276 2.04718 37.793 1.75812C37.376 1.6712 37.1221 1.73858 36.8321 2.06085ZM16.8946 16.9925C16.7237 17.2249 16.6973 17.3382 16.711 17.6273C16.8252 17.9515 16.9043 18.0589 17.1875 18.262C17.543 18.3177 17.8965 18.3167 18.2559 18.3167C19.4942 18.3226 19.4942 18.3226 19.9219 18.7503C19.9326 18.9046 19.9375 19.0599 19.9395 19.2142C19.9414 19.3636 19.9414 19.3636 19.9434 19.5149C19.9434 19.6233 19.9444 19.7317 19.9453 19.8441C19.9463 19.9554 19.9463 20.0667 19.9473 20.1819C19.9492 20.4192 19.9502 20.6566 19.9512 20.8939C19.9522 21.2523 19.9571 21.6116 19.961 21.971C19.9746 23.9339 19.7481 25.5521 18.3604 27.0589C18.044 27.3616 17.7002 27.6302 17.3594 27.9046C15.0967 29.7591 13.6973 32.6194 13.3985 35.5101C13.1416 38.6116 14.0039 41.7259 16.0323 44.1204C16.124 44.2259 16.2158 44.3294 16.3086 44.4339C16.3535 44.4847 16.3985 44.5355 16.4453 44.5882C18.209 46.5491 20.8965 47.9847 23.5352 48.2425C23.5977 48.2483 23.6612 48.2552 23.7256 48.262C26.8819 48.5648 29.8184 47.6605 32.3242 45.7278C34.6592 43.7991 36.2461 41.0511 36.6006 38.0218C36.8799 34.9222 36.0821 31.8177 34.0821 29.3948C33.3994 28.5999 32.6768 27.8421 31.8457 27.2005C30.8594 26.431 30.2891 25.2386 30.0781 24.0237C30.0684 23.845 30.0635 23.6673 30.0625 23.4886C30.0615 23.3841 30.0606 23.2796 30.0596 23.1712C30.0586 23.0042 30.0586 23.0042 30.0586 22.8323C30.0576 22.7171 30.0576 22.6009 30.0567 22.4817C30.0557 22.2376 30.0547 21.9935 30.0547 21.7493C30.0537 21.3753 30.0508 21.0013 30.0479 20.6263C30.0469 20.389 30.0469 20.1526 30.0459 19.9153C30.0449 19.803 30.044 19.6907 30.042 19.5745C30.043 19.471 30.043 19.3665 30.043 19.2601C30.043 19.1224 30.043 19.1224 30.042 18.9817C30.085 18.7054 30.1485 18.6224 30.3711 18.4573C30.6592 18.3607 30.8457 18.3489 31.1455 18.3489C31.2862 18.347 31.2862 18.347 31.4297 18.345C31.627 18.3421 31.8233 18.3421 32.0205 18.3431C32.5342 18.3421 32.5342 18.3421 32.9893 18.137C33.2197 17.8753 33.3008 17.7151 33.3008 17.3646C33.2031 17.0901 33.1426 16.9671 32.9102 16.7972C32.5869 16.6888 32.3477 16.6868 32.0069 16.6858C31.8789 16.6849 31.751 16.6849 31.6192 16.6839C31.4776 16.6839 31.335 16.6839 31.1934 16.6839C31.044 16.6829 30.8946 16.6829 30.7451 16.6819C30.3389 16.681 29.9336 16.68 29.5274 16.68C29.2735 16.679 29.0205 16.679 28.7666 16.679C27.9737 16.6771 27.1797 16.6761 26.3867 16.6761C25.4707 16.6751 24.5547 16.6741 23.6387 16.6712C22.9307 16.6692 22.2237 16.6683 21.5156 16.6673C21.0928 16.6673 20.6699 16.6673 20.2471 16.6653C19.8487 16.6634 19.4512 16.6634 19.0537 16.6644C18.9073 16.6644 18.7617 16.6644 18.6162 16.6634C18.417 16.6614 18.2168 16.6624 18.0176 16.6634C17.9063 16.6634 17.7949 16.6634 17.6797 16.6634C17.3467 16.7034 17.1641 16.7952 16.8946 16.9925Z" fill="#F5CAC4"/>
<path d="M17.7734 30.8593C18.0713 31.1191 18.1553 31.2666 18.1963 31.6601C18.1572 32.1093 18.0146 32.3886 17.7978 32.7754C16.7852 34.6982 16.5068 36.8623 17.0898 38.9648C17.4893 40.2099 18.1006 41.2666 18.9512 42.2607C19.1797 42.5478 19.2861 42.7256 19.2627 43.0966C19.124 43.5068 19.0332 43.6445 18.6523 43.8476C18.2588 43.8955 18.0078 43.8642 17.6758 43.6523C17.4941 43.4521 17.3271 43.2558 17.1631 43.042C17.1162 42.9814 17.0693 42.9199 17.0205 42.8574C15.3105 40.5957 14.6777 37.9443 15.0088 35.1445C15.1904 34.0566 15.5322 33.0488 16.0156 32.0615C16.0625 31.9648 16.0625 31.9648 16.1103 31.8662C16.5088 31.0888 16.8857 30.6455 17.7734 30.8593Z" fill="#F5CAC4"/>
<path d="M39.1785 5.48096C39.6443 5.89893 39.9998 6.56201 40.0662 7.18408C40.0945 8.03272 39.9373 8.63623 39.3757 9.28467C38.823 9.81299 38.2625 10.0161 37.5125 10.1011C36.8289 10.0688 36.155 9.82178 35.6511 9.35694C35.0837 8.71338 34.8923 8.07373 34.9226 7.22022C35.0066 6.58838 35.2908 6.01709 35.7419 5.5669C36.8152 4.78565 38.0642 4.73779 39.1785 5.48096ZM36.8162 7.1294C36.7029 7.4126 36.7029 7.4126 36.7185 7.71533C36.8953 8.02002 37.0203 8.16651 37.3474 8.30127C37.6755 8.30127 37.8269 8.20361 38.0857 8.0083C38.2986 7.68799 38.3425 7.59717 38.281 7.22705C38.0369 6.90381 37.8962 6.75733 37.4939 6.68311C37.1375 6.75147 37.0261 6.83447 36.8162 7.1294Z" fill="#F5CAC4"/>
<path d="M14.1785 5.48096C14.6443 5.89893 14.9998 6.56201 15.0662 7.18408C15.0945 8.03272 14.9373 8.63623 14.3757 9.28467C13.823 9.81299 13.2625 10.0161 12.5125 10.1011C11.8289 10.0688 11.155 9.82178 10.6511 9.35694C10.0837 8.71338 9.89234 8.07373 9.92261 7.22022C10.0066 6.58838 10.2908 6.01709 10.7419 5.5669C11.8152 4.78565 13.0642 4.73779 14.1785 5.48096ZM11.7185 7.22705C11.7185 7.57569 11.7439 7.80127 11.9382 8.09326C12.1677 8.24072 12.324 8.2876 12.5974 8.30127C12.9382 8.14209 13.071 8.03076 13.281 7.71533C13.2664 7.37158 13.2185 7.17822 13.0183 6.89697C12.7986 6.71924 12.7986 6.71924 12.5066 6.68311C12.0974 6.7583 11.9558 6.88819 11.7185 7.22705Z" fill="#F5CAC4"/>
</g>
<path d="M15.216 67L12.12 58.6H13.032L15.648 65.884L18.264 58.6H19.176L16.08 67H15.216ZM24.5859 61H25.3779V67H24.5859V65.824C24.0339 66.704 23.2259 67.144 22.1619 67.144C21.3059 67.144 20.5739 66.84 19.9659 66.232C19.3659 65.624 19.0659 64.88 19.0659 64C19.0659 63.12 19.3659 62.376 19.9659 61.768C20.5739 61.16 21.3059 60.856 22.1619 60.856C23.2259 60.856 24.0339 61.296 24.5859 62.176V61ZM20.5419 65.692C20.9979 66.148 21.5579 66.376 22.2219 66.376C22.8859 66.376 23.4459 66.148 23.9019 65.692C24.3579 65.228 24.5859 64.664 24.5859 64C24.5859 63.336 24.3579 62.776 23.9019 62.32C23.4459 61.856 22.8859 61.624 22.2219 61.624C21.5579 61.624 20.9979 61.856 20.5419 62.32C20.0859 62.776 19.8579 63.336 19.8579 64C19.8579 64.664 20.0859 65.228 20.5419 65.692ZM27.6788 62.572C27.6788 62.844 27.7988 63.06 28.0388 63.22C28.2788 63.38 28.5708 63.504 28.9148 63.592C29.2588 63.68 29.6028 63.78 29.9468 63.892C30.2908 63.996 30.5828 64.176 30.8228 64.432C31.0628 64.68 31.1828 65.008 31.1828 65.416C31.1828 65.928 30.9788 66.344 30.5708 66.664C30.1708 66.984 29.6508 67.144 29.0108 67.144C28.4348 67.144 27.9428 67.016 27.5348 66.76C27.1348 66.504 26.8548 66.172 26.6948 65.764L27.3668 65.368C27.4788 65.68 27.6788 65.928 27.9668 66.112C28.2628 66.288 28.6108 66.376 29.0108 66.376C29.4028 66.376 29.7308 66.3 29.9948 66.148C30.2588 65.988 30.3908 65.744 30.3908 65.416C30.3908 65.144 30.2708 64.928 30.0308 64.768C29.7908 64.608 29.4988 64.484 29.1548 64.396C28.8108 64.308 28.4668 64.212 28.1228 64.108C27.7788 63.996 27.4868 63.816 27.2468 63.568C27.0068 63.312 26.8868 62.98 26.8868 62.572C26.8868 62.084 27.0788 61.676 27.4628 61.348C27.8548 61.02 28.3468 60.856 28.9388 60.856C29.4268 60.856 29.8548 60.968 30.2228 61.192C30.5908 61.408 30.8628 61.704 31.0388 62.08L30.3788 62.464C30.1468 61.904 29.6668 61.624 28.9388 61.624C28.5948 61.624 28.2988 61.708 28.0508 61.876C27.8028 62.036 27.6788 62.268 27.6788 62.572ZM35.1003 60.856C35.9883 60.856 36.7043 61.172 37.2483 61.804C37.8003 62.428 38.0763 63.168 38.0763 64.024C38.0763 64.112 38.0683 64.236 38.0523 64.396H32.7843C32.8643 65.004 33.1203 65.488 33.5523 65.848C33.9923 66.2 34.5323 66.376 35.1723 66.376C35.6283 66.376 36.0203 66.284 36.3483 66.1C36.6843 65.908 36.9363 65.66 37.1043 65.356L37.8003 65.764C37.5363 66.188 37.1763 66.524 36.7203 66.772C36.2643 67.02 35.7443 67.144 35.1603 67.144C34.2163 67.144 33.4483 66.848 32.8563 66.256C32.2643 65.664 31.9683 64.912 31.9683 64C31.9683 63.104 32.2603 62.356 32.8443 61.756C33.4283 61.156 34.1803 60.856 35.1003 60.856ZM35.1003 61.624C34.4763 61.624 33.9523 61.812 33.5283 62.188C33.1123 62.556 32.8643 63.036 32.7843 63.628H37.2603C37.1803 62.996 36.9363 62.504 36.5283 62.152C36.1203 61.8 35.6443 61.624 35.1003 61.624Z" fill="#F5CAC4"/>
<defs>
<clipPath id="clip0_97_51">
<rect width="50" height="50" fill="white"/>
</clipPath>
</defs>
</svg>
